<?xml version="1.0" encoding="utf-8"?>
<svg viewBox="-239.528 -26.501 762.971 624.351" width="762.971px" height="624.351px" xmlns="http://www.w3.org/2000/svg" xmlns:bx="https://boxy-svg.com"><defs><bx:export><bx:file format="svg"/></bx:export></defs><rect x="33.167" y="-22.068" width="177.12" height="293.18" fill="#e0e0e0" style="" transform="matrix(-1, 0, 0, 1, 0, 0)"/><rect x="27.277" y="-22.068" width="177.12" height="293.18" fill="#ebebeb" style="" transform="matrix(-1, 0, 0, 1, 0, 0)"/><rect x="34.827" y="-16.108" width="162.03" height="281.29" fill="#fafafa" style="" transform="matrix(-1, 0, 0, 1, 0, 0)"/><rect x="65.667" y="20.432" width="99.64" height="208.19" fill="#ebebeb" style="" transform="matrix(-1, 0, 0, 1, 0, 0)"/><path d="M -165.977 151.822 C -166.207 171.262 -148.717 190.252 -129.467 192.962 C -120.287 194.302 -110.467 192.442 -101.947 195.962 C -86.627 202.242 -81.757 222.592 -66.337 228.622 L -65.647 78.152 L -165.997 78.152 L -165.977 151.822 Z" fill="#e0e0e0" style="transform-origin: -115.822px 153.387px;" transform="matrix(-1, 0, 0, -1, 0.000049, 0.000018)"/><path d="M 256.123 594.632 L 469.013 594.632 C 497.5 594.632 520.593 571.539 520.593 543.052 L 520.593 43.452 C 520.593 9.288 492.897 -18.408 458.733 -18.408 L 256.123 -18.408 C 227.648 -18.402 204.564 4.677 204.553 33.152 L 204.553 543.062 C 204.553 571.549 227.646 594.642 256.133 594.642 L 256.123 594.632 Z" fill="#757575" style="transform-origin: 362.573px 288.117px;" transform="matrix(-1, 0, 0, -1, 0.000034, 0.000023)"/><rect x="-512.493" y="-10.998" width="285.38" height="594.15" rx="48.82" style="fill: rgb(255, 255, 255);" transform="matrix(-1, 0, 0, 1, 0, 0)"/><rect x="217.27" y="36.58" width="7.19" height="61.48" rx="3.6" transform="matrix(0, -1, -1, 0, 439.323126, 230.271909)" fill="none" stroke="#123a53" stroke-miterlimit="10" style=""/><rect x="-459.723" y="42.202" width="181.02" height="198.49" rx="28.24" style="fill: rgb(239, 239, 240);" transform="matrix(-1, 0, 0, 1, 0, 0)"/><rect x="-426.643" y="256.342" width="114.85" height="8.11" rx="4.06" style="fill: rgb(239, 239, 240);" transform="matrix(-1, 0, 0, 1, 0, 0)"/><rect x="-409.473" y="273.192" width="80.52" height="8.11" rx="4.06" style="fill: rgb(239, 239, 240);" transform="matrix(-1, 0, 0, 1, 0, 0)"/><path d="M 438.82 316.887 L 442.15 310.147 C 442.246 309.956 442.428 309.822 442.64 309.787 L 450.09 308.707 C 450.592 308.626 450.818 308.033 450.497 307.639 C 450.482 307.621 450.466 307.603 450.45 307.587 L 445.07 302.337 C 444.911 302.189 444.839 301.97 444.88 301.757 L 446.15 294.347 C 446.261 293.851 445.794 293.421 445.309 293.573 C 445.253 293.591 445.199 293.615 445.15 293.647 L 438.5 297.147 C 438.309 297.247 438.081 297.247 437.89 297.147 L 431.23 293.647 C 430.777 293.417 430.245 293.762 430.271 294.27 C 430.273 294.296 430.276 294.322 430.28 294.347 L 431.57 301.707 C 431.6 301.919 431.53 302.134 431.38 302.287 L 425.99 307.537 C 425.63 307.896 425.794 308.51 426.285 308.642 C 426.31 308.648 426.335 308.653 426.36 308.657 L 433.8 309.737 C 434.013 309.769 434.196 309.903 434.29 310.097 L 437.62 316.837 C 437.811 317.308 438.44 317.395 438.752 316.994 C 438.778 316.96 438.801 316.925 438.82 316.887 Z" fill="#fbb040" style="transform-origin: 438.221px 305.394px;" transform="matrix(-1, 0, 0, -1, -0.000071, -0.000023)"/><path d="M 404.746 316.837 L 408.076 310.097 C 408.17 309.903 408.353 309.769 408.566 309.737 L 416.006 308.657 C 416.509 308.583 416.742 307.993 416.427 307.594 C 416.411 307.574 416.394 307.555 416.376 307.537 L 410.986 302.287 C 410.836 302.134 410.766 301.919 410.796 301.707 L 412.066 294.297 C 412.152 293.796 411.664 293.39 411.187 293.566 C 411.163 293.575 411.139 293.585 411.116 293.597 L 404.456 297.097 C 404.265 297.197 404.037 297.197 403.846 297.097 L 397.196 293.597 C 396.768 293.323 396.204 293.615 396.181 294.123 C 396.178 294.181 396.183 294.24 396.196 294.297 L 397.466 301.707 C 397.507 301.92 397.435 302.139 397.276 302.287 L 391.896 307.537 C 391.535 307.895 391.697 308.509 392.188 308.642 C 392.21 308.648 392.233 308.653 392.256 308.657 L 399.696 309.737 C 399.911 309.769 400.098 309.903 400.196 310.097 L 403.526 316.837 C 403.72 317.307 404.35 317.39 404.659 316.987 C 404.695 316.941 404.724 316.891 404.746 316.837 Z" fill="#fbb040" style="transform-origin: 404.135px 305.37px;" transform="matrix(-1, 0, 0, -1, -0.00004, 0.000004)"/><path d="M 369.346 316.849 L 372.676 310.109 C 372.77 309.915 372.953 309.781 373.166 309.749 L 380.656 308.669 C 381.159 308.595 381.392 308.005 381.077 307.606 C 381.061 307.586 381.044 307.567 381.026 307.549 L 375.636 302.299 C 375.486 302.146 375.416 301.931 375.446 301.719 L 376.726 294.309 C 376.821 293.802 376.332 293.382 375.845 293.553 C 375.804 293.568 375.764 293.587 375.726 293.609 L 369.076 297.109 C 368.881 297.209 368.651 297.209 368.456 297.109 L 361.806 293.609 C 361.378 293.335 360.814 293.627 360.791 294.135 C 360.788 294.193 360.793 294.252 360.806 294.309 L 362.076 301.719 C 362.117 301.932 362.045 302.151 361.886 302.299 L 356.506 307.549 C 356.145 307.907 356.307 308.521 356.798 308.654 C 356.82 308.66 356.843 308.665 356.866 308.669 L 364.316 309.749 C 364.529 309.781 364.712 309.915 364.806 310.109 L 368.136 316.849 C 368.339 317.315 368.97 317.386 369.272 316.977 C 369.301 316.938 369.326 316.895 369.346 316.849 Z" fill="#fbb040" style="transform-origin: 368.765px 305.376px;" transform="matrix(-1, 0, 0, -1, -0.000111, 0)"/><path d="M 335.243 316.87 L 338.573 310.13 C 338.671 309.936 338.858 309.802 339.073 309.77 L 346.513 308.69 C 347.015 308.609 347.241 308.016 346.92 307.622 C 346.905 307.604 346.889 307.586 346.873 307.57 L 341.463 302.32 C 341.304 302.172 341.232 301.953 341.273 301.74 L 342.543 294.33 C 342.629 293.829 342.141 293.423 341.664 293.599 C 341.64 293.608 341.616 293.618 341.593 293.63 L 334.933 297.13 C 334.742 297.23 334.514 297.23 334.323 297.13 L 327.663 293.63 C 327.21 293.4 326.678 293.745 326.704 294.253 C 326.706 294.279 326.709 294.305 326.713 294.33 L 327.983 301.74 C 328.024 301.953 327.952 302.172 327.793 302.32 L 322.463 307.57 C 322.102 307.928 322.264 308.542 322.755 308.675 C 322.777 308.681 322.8 308.686 322.823 308.69 L 330.263 309.77 C 330.478 309.802 330.665 309.936 330.763 310.13 L 334.083 316.87 C 334.325 317.317 334.96 317.333 335.226 316.9 C 335.232 316.89 335.237 316.88 335.243 316.87 Z" fill="#fbb040" style="transform-origin: 334.668px 305.386px;" transform="matrix(-1, 0, 0, -1, -0.000001, 0.00005)"/><path d="M 301.244 316.9 L 304.574 310.16 C 304.672 309.966 304.859 309.832 305.074 309.8 L 312.514 308.72 C 313.016 308.639 313.242 308.046 312.921 307.652 C 312.906 307.634 312.89 307.616 312.874 307.6 L 307.464 302.35 C 307.305 302.202 307.233 301.983 307.274 301.77 L 308.544 294.36 C 308.63 293.859 308.142 293.453 307.665 293.629 C 307.641 293.638 307.617 293.648 307.594 293.66 L 300.934 297.16 C 300.743 297.26 300.515 297.26 300.324 297.16 L 293.664 293.66 C 293.236 293.386 292.672 293.678 292.649 294.186 C 292.646 294.244 292.651 294.303 292.664 294.36 L 293.934 301.77 C 293.975 301.983 293.903 302.202 293.744 302.35 L 288.464 307.6 C 288.103 307.958 288.265 308.572 288.756 308.705 C 288.778 308.711 288.801 308.716 288.824 308.72 L 296.264 309.8 C 296.479 309.832 296.666 309.966 296.764 310.16 L 300.094 316.9 C 300.327 317.343 300.952 317.367 301.219 316.943 C 301.228 316.929 301.236 316.915 301.244 316.9 Z" fill="none" stroke="#fbb040" stroke-miterlimit="10" style="transform-origin: 300.669px 305.401px;" transform="matrix(-1, 0, 0, -1, -0.000014, -0.000035)"/><rect x="-461.753" y="340.622" width="184.62" height="57.08" rx="28.54" fill="#757575" style="" transform="matrix(-1, 0, 0, 1, 0, 0)"/><path d="M 303.593 432.252 C 303.593 432.252 305.003 439.652 312.393 439.252 L 370.263 439.252 C 371.657 439.253 372.867 440.214 373.183 441.572 L 391.183 519.572 C 391.654 521.628 393.484 523.084 395.593 523.082 L 410.313 523.082" fill="none" stroke="#123a53" stroke-miterlimit="10" style="transform-origin: 356.953px 477.667px;" transform="matrix(-1, 0, 0, -1, -0.000017, 0.000083)"/><path d="M 341.263 514.882 C 341.263 514.882 339.503 520.082 332.983 524.182" fill="none" stroke="#123a53" stroke-miterlimit="10" style="transform-origin: 337.123px 519.532px;" transform="matrix(-1, 0, 0, -1, 0.000006, 0.000019)"/><circle cx="-399.273" cy="525.472" r="5.94" fill="none" stroke="#123a53" stroke-miterlimit="10" style="" transform="matrix(-1, 0, 0, 1, 0, 0)"/><circle cx="-345.353" cy="525.472" r="5.94" fill="none" stroke="#123a53" stroke-miterlimit="10" style="" transform="matrix(-1, 0, 0, 1, 0, 0)"/><path d="M 421.273 502.452 L 408.543 446.082 L 339.493 446.082 C 335.012 446.071 331.205 449.357 330.563 453.792 L 325.093 491.102 C 331.666 491.218 337.234 495.977 338.373 502.452 L 421.273 502.452 Z" fill="none" stroke="#123a53" stroke-miterlimit="10" style="transform-origin: 373.183px 474.267px;" transform="matrix(-1, 0, 0, -1, 0.000076, -0.000062)"/><path d="M 421.266 429.782 C 410.42 429.882 403.749 441.686 409.259 451.029 C 414.769 460.372 428.326 460.247 433.663 450.804 C 438.942 441.461 432.257 429.881 421.526 429.782 L 421.266 429.782 Z M 421.266 457.262 C 411.074 457.262 404.704 446.229 409.8 437.402 C 412.165 433.306 416.536 430.782 421.266 430.782 L 421.496 430.782 C 427.836 430.897 433.206 435.487 434.306 441.732 C 434.438 442.488 434.505 443.254 434.506 444.022 C 434.495 451.33 428.574 457.251 421.266 457.262 Z" fill="#123a53" style="transform-origin: 421.395px 443.872px;" transform="matrix(-1, 0, 0, -1, -0.000071, 0.000011)"/><rect x="138.647" y="-435.282" width="1" height="15.89" fill="#123a53" style="" transform="matrix(-1, 0, 0, 1, 560.670109, 870.564037)"/><rect x="-146.187" y="443.222" width="16.22" height="1" fill="#123a53" style="" transform="matrix(-1, 0, 0, 1, 283.376138, 0.000196)"/><line x1="-602.971" y1="466.174" x2="-512.711" y2="466.174" fill="none" stroke="#123a53" stroke-miterlimit="10" style="transform-origin: -91.488px 466.173px;" transform="matrix(-1, 0, 0, -1, -0.00001, -0.000029)"/><line x1="-601.879" y1="483.611" x2="-518.21" y2="483.611" fill="none" stroke="#123a53" stroke-miterlimit="10" style="transform-origin: -92.223px 483.611px;" transform="matrix(-1, 0, 0, -1, 0.000026, 0.000054)"/><line x1="396.213" y1="446.102" x2="396.213" y2="502.472" fill="none" stroke="#123a53" stroke-miterlimit="10" style=""/><line x1="373.913" y1="446.102" x2="373.913" y2="502.472" fill="none" stroke="#123a53" stroke-miterlimit="10" style=""/><line x1="350.013" y1="446.102" x2="350.013" y2="502.472" fill="none" stroke="#123a53" stroke-miterlimit="10" style=""/><path d="M 332.153 191.632 L 407.693 191.632 L 419.043 142.302 C 422.013 129.395 412.207 117.079 398.963 117.082 L 340.233 117.082 C 326.891 117.093 317.079 129.589 320.233 142.552 L 332.153 191.632 Z" fill="#bfbfbf" style="transform-origin: 369.608px 154.357px;" transform="matrix(-1, 0, 0, -1, -0.000052, 0.000018)"/><path d="M 319.586 117.082 C 319.586 117.082 391.666 116.752 391.336 141.822 L 387.046 191.672 L 398.936 139.552 C 398.936 139.552 400.936 119.432 378.316 117.122 L 319.586 117.082 Z" opacity="0.2" style="transform-origin: 359.284px 154.377px;" transform="matrix(-1, 0, 0, -1, 0.000087, -0.000007)"/><circle cx="-299.113" cy="55.312" r="5.03" fill="#bfbfbf" style="" transform="matrix(-1, 0, 0, 1, 0, 0)"/><path d="M 348.983 81.082 L 348.983 95.422 C 349.011 107.393 358.722 117.082 370.693 117.082 C 382.687 117.088 392.413 107.366 392.413 95.372 L 392.413 81.182" fill="none" stroke="#123a53" stroke-miterlimit="10" style="transform-origin: 370.698px 99.082px;" transform="matrix(-1, 0, 0, -1, 0.0001, 0.000005)"/><path d="M 281.913 107.833 L 261.553 111.833 L 261.213 113.203 L 281.583 109.153 L 281.913 107.833 Z M 265.673 108.183 L 268.923 109.003 C 270.983 109.513 272.523 108.923 273.003 107.003 C 273.453 105.233 272.653 103.863 270.493 103.323 L 267.113 102.473 C 264.833 101.893 263.583 102.873 263.113 104.553 C 262.643 106.233 263.533 107.643 265.673 108.183 Z M 266.583 104.183 L 270.043 105.053 C 271.043 105.313 271.563 105.753 271.363 106.553 C 271.163 107.353 270.473 107.483 269.453 107.223 L 265.993 106.353 C 265.043 106.113 264.563 105.663 264.753 104.913 C 264.943 104.163 265.593 103.993 266.583 104.203 L 266.583 104.183 Z M 272.583 117.773 L 275.833 118.593 C 277.893 119.113 279.423 118.513 279.913 116.593 C 280.403 114.673 279.563 113.453 277.393 112.913 L 274.013 112.063 C 271.783 111.503 270.483 112.463 270.063 114.153 C 269.643 115.843 270.413 117.243 272.623 117.793 L 272.583 117.773 Z M 273.493 113.773 L 276.943 114.633 C 277.943 114.883 278.473 115.343 278.273 116.133 C 278.073 116.923 277.373 117.063 276.363 116.803 L 272.873 115.933 C 271.873 115.693 271.463 115.243 271.653 114.493 C 271.843 113.743 272.543 113.573 273.533 113.823 L 273.493 113.773 Z" fill="#f0f0ff" style="transform-origin: 271.563px 110.537px;" transform="matrix(-1, 0, 0, -1, 0.00008, -0.000001)"/><line x1="296.113" y1="59.342" x2="280.083" y2="86.612" fill="#f0f0ff" stroke="#231f20" stroke-miterlimit="10" style="transform-origin: 288.098px 72.977px;" transform="matrix(-1, 0, 0, -1, -0.000095, -0.000003)"/><polygon points="-63.977 244.232 -74.917 244.232 -77.567 240.342 -71.617 230.002 -63.977 230.002 -63.977 244.232" fill="#bfbfbf" style="transform-origin: -70.772px 237.117px;" transform="matrix(-1, 0, 0, -1, 0.000054, -0.000032)"/><polygon points="-63.977 244.232 -74.917 244.232 -77.567 240.342 -71.617 230.002 -63.977 230.002 -63.977 244.232" opacity="0.2" style="transform-origin: -70.772px 237.117px;" transform="matrix(-1, 0, 0, -1, 0.000054, -0.000032)"/><ellipse cx="77.567" cy="237.122" rx="4.94" ry="7.11" fill="#bfbfbf" style="" transform="matrix(-1, 0, 0, 1, 0, 0)"/><line x1="-93.097" y1="236.272" x2="-78.447" y2="236.272" fill="none" stroke="#a7a9ac" stroke-linecap="round" stroke-linejoin="round" stroke-width="3" style=""/><ellipse cx="617.83" cy="487.59" rx="12.36" ry="13.73" transform="matrix(-0.967489, -0.252914, -0.252914, 0.967489, 696.10142, 114.192768)" fill="#808285" style=""/><polyline points="-126.957 427.612 -15.807 502.002 88.113 485.812" fill="none" stroke="#808285" stroke-miterlimit="10" stroke-width="3" style="transform-origin: -19.422px 464.807px;" transform="matrix(-1, 0, 0, -1, 0.000002, 0.000046)"/><line x1="-56.637" y1="403.902" x2="71.263" y2="494.122" fill="none" stroke="#a7a9ac" stroke-miterlimit="10" stroke-width="3" style="transform-origin: 7.313px 449.012px;" transform="matrix(-1, 0, 0, -1, -0.000046, 0.00007)"/><line x1="67.253" y1="450.632" x2="-23.367" y2="475.542" fill="none" stroke="#a7a9ac" stroke-miterlimit="10" stroke-width="3" style="transform-origin: 21.943px 463.087px;" transform="matrix(-1, 0, 0, -1, 0.000021, 0.000033)"/><line x1="7.313" y1="429.672" x2="-68.287" y2="442.402" fill="none" stroke="#a7a9ac" stroke-miterlimit="10" stroke-width="3" style="transform-origin: -30.487px 436.037px;" transform="matrix(-1, 0, 0, -1, -0.000066, 0.00004)"/><path d="M -42.929 379.713 L 160.841 478.003 L 181.391 379.183 L 24.881 286.433 C 24.05 285.939 22.979 286.16 22.411 286.943 L -43.309 378.193 C -43.702 378.704 -43.516 379.447 -42.929 379.713 Z" fill="none" stroke="#a7a9ac" stroke-miterlimit="10" stroke-width="3" style="transform-origin: 68.937px 382.088px;" transform="matrix(-1, 0, 0, -1, 0.000019, -0.000058)"/><line x1="140.813" y1="444.122" x2="56.003" y2="458.942" fill="none" stroke="#bcbec0" stroke-miterlimit="10" stroke-width="3" style="transform-origin: 98.408px 451.532px;" transform="matrix(-1, 0, 0, -1, 0.000011, -0.000069)"/><line x1="-99.037" y1="357.522" x2="-46.357" y2="354.372" fill="none" stroke="#939598" stroke-miterlimit="10" stroke-width="3" style="transform-origin: -72.697px 355.947px;" transform="matrix(-1, 0, 0, -1, -0.000016, -0.000006)"/><polygon points="-22.967 286.172 -83.037 297.062 -107.877 413.192 -35.487 405.642 -22.967 286.172" fill="none" stroke="#939598" stroke-miterlimit="10" stroke-width="3" style="transform-origin: -65.422px 349.682px;" transform="matrix(-1, 0, 0, -1, -0.00002, -0.000033)"/><line x1="14.153" y1="432.142" x2="67.253" y2="329.692" fill="none" stroke="#a7a9ac" stroke-miterlimit="10" stroke-width="3" style="transform-origin: 40.703px 380.917px;" transform="matrix(-1, 0, 0, -1, 0.000048, 0.00003)"/><line x1="125.323" y1="357.702" x2="67.253" y2="450.632" fill="none" stroke="#a7a9ac" stroke-miterlimit="10" stroke-width="3" style="transform-origin: 96.288px 404.167px;" transform="matrix(-1, 0, 0, -1, 0.000044, -0.000017)"/><line x1="135.943" y1="396.262" x2="77.233" y2="491.982" fill="none" stroke="#bcbec0" stroke-miterlimit="10" stroke-width="3" style="transform-origin: 106.588px 444.122px;" transform="matrix(-1, 0, 0, -1, -0.000013, -0.000042)"/><path d="M 117.779 490.751 L 25.309 510.751 C 24.916 510.826 24.589 510.448 24.72 510.07 C 24.734 510.028 24.754 509.988 24.779 509.951 L 90.079 419.291 C 90.956 418.071 92.184 417.147 93.599 416.641 L 181.019 385.311 C 181.122 385.278 181.221 385.368 181.199 385.474 C 181.195 385.491 181.188 385.507 181.179 385.521 L 117.779 490.751 Z" fill="none" stroke="#bcbec0" stroke-miterlimit="10" stroke-width="3" style="transform-origin: 102.946px 448.031px;" transform="matrix(-1, 0, 0, -1, 0.000022, -0.000015)"/><path d="M -87.787 326.612 L -86.197 292.412 L -70.017 292.412 C -70.017 292.412 -75.727 266.412 -59.227 247.032 L -8.447 247.032 C -8.447 247.032 6.433 250.362 2.213 281.652 C 1.693 285.492 1.293 289.342 1.153 293.212 L 1.063 295.912 L 20.423 283.852 C 20.423 283.852 30.263 291.782 37.873 314.952 C 37.873 314.952 6.603 340.072 -21.127 340.412 L -46.447 336.212 L -87.787 326.612 Z" fill="#bfbfbf" style="transform-origin: -24.957px 293.722px;" transform="matrix(-1, 0, 0, -1, 0.000036, 0.00002)"/><path d="M -47.612 250.195 L -44.092 230.785 C -37.777 230.563 -31.534 229.369 -25.582 227.245 C -25.582 227.245 -22.852 237.955 -32.762 246.815 C -32.722 246.865 -40.022 252.125 -47.612 250.195 Z" fill="#123a53" style="transform-origin: -36.425px 238.934px;" transform="matrix(-1, 0, 0, -1, 0.000051, -0.000044)"/><path d="M -47.612 250.195 L -44.092 230.785 C -37.777 230.563 -31.534 229.369 -25.582 227.245 C -25.582 227.245 -22.852 237.955 -32.762 246.815 C -32.722 246.865 -40.022 252.125 -47.612 250.195 Z" opacity="0.2" style="transform-origin: -36.425px 238.934px;" transform="matrix(-1, 0, 0, -1, 0.000051, -0.000044)"/><path d="M -28.137 236.156 C -28.137 236.156 -30.567 223.946 -25.807 220.616 C -25.807 220.616 -16.997 213.716 -3.437 233.226 L -6.957 254.156 L -16.067 260.806 L -28.137 236.156 Z" fill="#ffad95" style="transform-origin: -16.097px 240.119px;" transform="matrix(-1, 0, 0, -1, 0.000066, -0.000018)"/><path d="M -4.057 194.582 C -4.057 194.582 -3.517 210.832 5.103 217.122 C 5.103 217.122 -10.017 234.192 5.783 258.442 L 7.293 256.852 L 27.603 208.942 C 27.108 206.599 26.9 204.205 26.983 201.812 L -4.057 194.582 Z" fill="#123a53" style="transform-origin: 11.773px 226.512px;" transform="matrix(-1, 0, 0, -1, 0.000067, -0.00001)"/><path d="M -20.045 228.482 C -20.119 230.875 -19.911 233.268 -19.425 235.612 L -3.605 251.232 C -3.605 251.232 -0.475 234.102 -20.045 228.482 Z" fill="#e37961" style="transform-origin: -11.741px 239.857px;" transform="matrix(-1, 0, 0, -1, 0.000029, 0.000015)"/><ellipse cx="2.257" cy="211.012" rx="20.7" ry="33.22" fill="#ffad95" style="" transform="matrix(-1, 0, 0, 1, 0, 0)"/><path d="M -40.297 228.751 C -40.297 228.751 -71.297 226.281 -74.467 242.101 C -74.969 244.87 -74.409 247.727 -72.897 250.101 C -69.547 255.551 -60.717 264.301 -40.297 257.101 C -34.571 254.203 -29.474 250.203 -25.297 245.331 C -24.747 244.692 -24.258 244.002 -23.837 243.271 C -22.767 241.481 -19.837 237.561 -13.327 234.801 C -13.327 234.801 4.773 226.671 1.673 205.431 C 1.673 205.431 22.913 206.481 20.033 180.251 C 20.033 180.251 18.403 173.251 13.843 171.781 C 13.843 171.781 -0.647 179.231 -7.067 181.051 C -7.067 181.051 -4.257 200.641 -29.067 203.951 L -29.067 215.781 C -29.067 215.781 -36.897 218.521 -40.297 228.751 Z" fill="#123a53" style="transform-origin: -27.172px 215.801px;" transform="matrix(-1, 0, 0, -1, -0.000006, 0.000018)"/><ellipse cx="618.11" cy="277.35" rx="8.42" ry="5.46" transform="matrix(-0.176054, -0.98438, -0.98438, 0.176054, 356.624859, 779.054427)" fill="#ffad95" style=""/><path d="M 166.973 416.949 C 159.784 406.318 150.958 396.892 140.823 389.019 L 86.003 414.929 C 60.553 433.219 46.643 432.419 46.643 432.419 L -13.777 442.359 L -20.577 398.279 L -5.077 394.699 L -5.477 397.479 L 35.473 392.709 L 86.753 360.909 C 86.753 360.909 101.683 333.169 139.483 318.129 C 162.393 309.009 188.893 320.479 196.153 344.049 C 196.413 344.869 196.643 345.719 196.873 346.599 L 187.723 416.989 L 166.973 416.949 Z" fill="#757575" style="transform-origin: 88.148px 378.681px;" transform="matrix(-1, 0, 0, -1, -0.000037, 0.000009)"/><path d="M 166.973 416.949 C 159.784 406.318 150.958 396.892 140.823 389.019 L 86.003 414.929 C 60.553 433.219 46.643 432.419 46.643 432.419 L -13.777 442.359 L -20.577 398.279 L -5.077 394.699 L -5.477 397.479 L 35.473 392.709 L 86.753 360.909 C 86.753 360.909 101.683 333.169 139.483 318.129 C 162.393 309.009 188.893 320.479 196.153 344.049 C 196.413 344.869 196.643 345.719 196.873 346.599 L 187.723 416.989 L 166.973 416.949 Z" opacity="0.2" style="transform-origin: 88.148px 378.681px;" transform="matrix(-1, 0, 0, -1, -0.000037, 0.000009)"/><path d="M 112.058 450.642 L 119.848 474.802 L 153.418 474.802 C 153.418 474.802 187.038 434.622 161.198 395.662 C 161.198 395.662 132.198 355.512 54.658 395.662 C 54.658 395.662 22.458 412.442 6.558 426.312 C 6.558 426.312 4.968 365.452 -8.552 340.412 C -8.552 340.412 -37.552 345.972 -59.032 359.492 C -59.032 359.492 -41.542 400.432 -36.772 439.392 C -36.772 439.392 -38.362 470.792 -7.772 466.022 C -7.772 466.022 38.758 462.512 109.708 449.262 C 110.728 449.059 111.738 449.653 112.058 450.642 Z" fill="#757575" style="transform-origin: 55.966px 407.607px;" transform="matrix(-1, 0, 0, -1, -0.000039, 0.000009)"/><polygon points="-107.877 399.292 -44.317 293.722 88.113 391.412 75.593 510.882 -107.877 399.292" fill="none" stroke="#d1d3d4" stroke-miterlimit="10" stroke-width="3" style="transform-origin: -9.882px 402.302px;" transform="matrix(-1, 0, 0, -1, -0.000054, 0.000027)"/><path d="M 129.223 327.642 L 119.813 323.082 L 145.463 231.082 L 167.693 239.252 C 163.406 253.148 156.659 266.161 147.773 277.672 C 147.773 277.672 136.063 290.642 129.223 327.642 Z" fill="#00aeef" style="transform-origin: 143.753px 279.362px;" transform="matrix(-1, 0, 0, -1, -0.000025, 0.000026)"/><path d="M 129.223 327.642 L 119.813 323.082 L 145.463 231.082 L 167.693 239.252 C 163.406 253.148 156.659 266.161 147.773 277.672 C 147.773 277.672 136.063 290.642 129.223 327.642 Z" opacity="0.2" style="transform-origin: 143.753px 279.362px;" transform="matrix(-1, 0, 0, -1, -0.000025, 0.000026)"/><ellipse cx="724.04" cy="509.45" rx="15.55" ry="19.4" transform="matrix(-0.967489, -0.252914, -0.252914, 0.967489, 698.181265, 141.762735)" fill="#808285" style=""/><path d="M -210.422 393.432 C -210.422 393.432 -174.672 304.932 -172.322 286.172 C -172.322 286.172 -148.322 304.342 -131.322 309.032 C -131.322 309.032 -103.482 316.942 -99.082 322.802 C -99.082 322.802 -144.212 389.622 -151.242 419.802 L -164.422 412.312 C -164.422 412.312 -174.792 435.002 -197.102 441.142 C -197.102 441.142 -199.402 435.772 -206.232 437.752 C -206.232 437.752 -214.612 419.942 -207.792 394.892 L -210.422 393.432 Z" fill="#00aeef" style="transform-origin: -154.774px 363.657px;" transform="matrix(-1, 0, 0, -1, -0.000053, -0.000009)"/><path d="M -201.357 227.492 C -201.357 227.492 -198.557 225.492 -196.727 220.212 L -190.017 222.512 L -193.647 228.362 L -201.357 227.492 Z" fill="#a98c5d" style="transform-origin: -195.687px 224.287px;" transform="matrix(-1, 0, 0, -1, -0.00007, -0.00001)"/><rect x="-221.823" y="145.922" width="7.19" height="71.14" rx="3.6" fill="#f0f0ff" style="" transform="matrix(-1, 0, 0, 1, 0, 0)"/><rect x="-221.823" y="86.352" width="7.19" height="46.27" rx="3.6" fill="#f0f0ff" style="" transform="matrix(-1, 0, 0, 1, 0, 0)"/><path d="M 297.42 86.891 L 286.21 117.161 C 283.536 124.379 275.287 127.799 268.29 124.591 C 262.036 121.693 259.049 114.483 261.42 108.011 L 272.61 77.461 C 273.387 75.329 275.764 74.25 277.88 75.071 L 295.11 81.681 C 297.174 82.495 298.203 84.815 297.42 86.891 Z M 273.04 112.891 C 270.092 112.891 268.249 116.083 269.723 118.636 C 271.197 121.189 274.883 121.189 276.357 118.636 C 276.695 118.051 276.872 117.387 276.87 116.711 C 276.892 114.597 275.194 112.868 273.08 112.851 L 273.04 112.891 Z" fill="#00aeef" style="transform-origin: 279.146px 100.296px;" transform="matrix(-1, 0, 0, -1, 0.000033, 0.00001)"/><path d="M 192.328 345.082 C 192.328 345.082 210.058 334.682 231.468 335.692 L 227.508 310.082 C 227.508 310.082 215.998 319.892 197.048 322.262 C 197.048 322.262 200.468 325.682 193.628 331.732 C 193.628 331.692 188.098 338.542 192.328 345.082 Z" fill="#ffad95" style="transform-origin: 211.101px 327.582px;" transform="matrix(-1, 0, 0, -1, -0.000038, 0.000016)"/><path d="M 285.61 295.189 L 277.7 289.659 C 276.82 291.879 274.59 293.859 272.84 295.169 C 270.323 296.969 267.924 298.93 265.66 301.039 C 256.31 309.859 245.6 321.519 245.6 321.519 C 233.6 333.269 226.52 334.939 224.72 335.159 C 224.492 335.198 224.347 335.426 224.41 335.649 C 228.05 346.649 270.62 322.049 270.62 322.049 C 283.5 324.139 280.89 318.059 280.89 318.059 C 276.94 311.749 282.2 304.639 282.2 304.639 C 288.77 299.419 285.61 295.189 285.61 295.189 Z" fill="#bfbfbf" style="transform-origin: 255.382px 314.071px;" transform="matrix(-1, 0, 0, -1, 0.000033, -0.000062)"/><path d="M 286.815 293.813 C 283.665 284.623 243.925 326.453 243.925 326.453 C 229.725 338.553 233.525 339.803 233.525 339.803 C 233.462 339.58 233.607 339.352 233.835 339.313 C 235.635 339.093 242.745 337.423 254.715 325.673 C 254.715 325.673 265.425 314.013 274.775 305.193 C 277.039 303.084 279.438 301.123 281.955 299.323 C 283.705 298.013 285.935 296.033 286.815 293.813 Z" fill="#123a53" style="transform-origin: 259.939px 316.147px;" transform="matrix(-1, 0, 0, -1, -0.000001, -0.000039)"/><path d="M 157.193 510.889 C 157.193 510.889 151.693 482.149 140.793 467.579 C 140.793 467.579 148.303 467.179 150.093 461.959 C 150.305 461.209 150.737 460.54 151.333 460.039 C 153.063 458.719 156.903 457.249 161.723 464.399 C 161.723 464.399 160.353 466.899 164.453 473.499 C 164.453 473.499 175.853 495.179 181.873 500.499 C 181.853 500.489 167.473 505.269 157.193 510.889 Z" fill="#ffad95" style="transform-origin: 161.333px 484.915px;" transform="matrix(-1, 0, 0, -1, 0.000078, -0.000003)"/><path d="M 216.222 548.426 L 186.642 518.096 C 182.294 513.331 177.326 509.171 171.872 505.726 L 171.762 505.726 C 169.384 504.244 166.822 503.081 164.142 502.266 C 161.997 501.593 159.657 502.225 158.142 503.886 C 151.592 511.726 171.852 531.806 171.852 531.806 C 178.002 537.716 183.002 552.286 183.002 552.286 C 184.152 563.446 191.202 560.936 191.202 560.936 C 199.842 560.466 201.752 553.376 201.752 553.376 C 207.062 549.246 212.122 557.756 212.122 557.756 C 216.902 555.026 216.222 548.426 216.222 548.426 Z" fill="#bfbfbf" style="transform-origin: 186.547px 531.589px;" transform="matrix(-1, 0, 0, -1, -0.000035, 0.000016)"/><path d="M 201.253 554.672 C 201.26 553.639 200.882 552.641 200.193 551.872 C 195.063 546.182 172.263 521.502 156.873 514.752 C 162.334 518.179 167.312 522.323 171.673 527.072 L 201.253 557.402 L 201.253 554.672 Z" fill="#123a53" style="transform-origin: 179.063px 536.077px;" transform="matrix(-1, 0, 0, -1, -0.000012, -0.000088)"/><path d="M 60.383 296.032 C 60.383 296.032 65.673 263.542 77.563 245.582 C 77.563 245.582 91.443 225.922 98.853 207.682 L 156.283 233.292 C 158.063 234.085 158.802 236.218 157.893 237.942 L 115.103 319.432 L 60.383 296.032 Z" fill="#00aeef" style="transform-origin: 109.333px 263.557px;" transform="matrix(-1, 0, 0, -1, -0.000056, 0)"/><path d="M 129.823 197.272 C 129.823 197.272 120.713 209.272 113.063 214.432 L 115.363 206.252 C 115.363 206.252 121.563 199.142 123.513 194.582 L 129.823 197.272 Z" fill="#f3e4cd" style="transform-origin: 121.443px 204.507px;" transform="matrix(-1, 0, 0, -1, -0.000028, 0.000022)"/><line x1="21.003" y1="364.492" x2="-23.367" y2="475.542" fill="none" stroke="#d1d3d4" stroke-miterlimit="10" stroke-width="3" style="transform-origin: -1.182px 420.017px;" transform="matrix(-1, 0, 0, -1, -0.000027, 0.000023)"/><line x1="-68.287" y1="442.402" x2="-39.677" y2="327.582" fill="none" stroke="#d1d3d4" stroke-miterlimit="10" stroke-width="3" style="transform-origin: -53.982px 384.992px;" transform="matrix(-1, 0, 0, -1, -0.000033, -0.00002)"/><line x1="56.003" y1="458.942" x2="-102.067" y2="357.702" fill="none" stroke="#d1d3d4" stroke-miterlimit="10" stroke-width="3" style="transform-origin: -23.032px 408.322px;" transform="matrix(-1, 0, 0, -1, -0.000045, 0.000033)"/><line x1="2.283" y1="542.522" x2="98.403" y2="506.572" fill="none" stroke="#808285" stroke-miterlimit="10" stroke-width="3" style="transform-origin: 50.343px 524.547px;" transform="matrix(-1, 0, 0, -1, -0.000053, 0.000044)"/><line x1="-118.777" y1="450.632" x2="-9.887" y2="538.422" fill="none" stroke="#808285" stroke-miterlimit="10" stroke-width="3" style="transform-origin: -64.332px 494.527px;" transform="matrix(-1, 0, 0, -1, -0.000008, 0.000037)"/><ellipse cx="600.73" cy="606.4" rx="15.55" ry="19.4" transform="matrix(-0.967489, -0.252914, -0.252914, 0.967489, 726.711461, 113.733091)" fill="#808285" style=""/><ellipse cx="495.46" cy="565.52" rx="12.36" ry="13.73" transform="matrix(-0.967489, -0.252914, -0.252914, 0.967489, 719.791774, 85.782997)" fill="#808285" style=""/><path d="M -90.719 293.722 C -90.719 293.722 -114.459 276.632 -100.059 214.812" fill="none" stroke="#d1d3d4" stroke-linecap="round" stroke-linejoin="round" stroke-width="3" style="transform-origin: -97.708px 254.267px;" transform="matrix(-1, 0, 0, -1, -0.000032, 0.000017)"/><path d="M -215.738 209.497 C -215.738 209.497 -176.098 177.657 -166.308 193.207 C -166.308 193.207 -136.068 247.927 -124.258 282.777 C -124.258 282.777 -116.488 281.627 -98.338 289.687 C -98.338 289.687 -76.798 290.007 -81.638 294.877 C -81.638 294.877 -76.008 293.207 -74.738 295.877 C -74.738 295.877 -73.468 298.417 -79.338 298.257 C -79.338 298.257 -72.668 297.457 -72.668 300.317 C -72.668 300.317 -71.668 303.017 -78.388 302.697 C -78.388 302.697 -73.628 306.697 -81.718 306.827 C -81.718 306.827 -91.868 308.407 -111.868 306.827 C -111.868 306.827 -112.568 308.457 -110.868 311.317 C -109.774 313.034 -109.068 314.969 -108.798 316.987 C -108.578 319.077 -108.898 321.297 -111.048 321.857 C -111.171 321.877 -111.296 321.877 -111.418 321.857 C -112.278 321.757 -115.688 320.987 -115.828 314.857 C -116.564 310.684 -119.288 307.131 -123.128 305.337 C -123.128 305.337 -131.378 300.097 -132.338 293.117 C -132.338 293.117 -141.058 286.647 -150.108 266.477 L -175.888 224.537 C -177.313 222.204 -179.864 220.797 -182.598 220.837 C -184.445 220.773 -186.255 221.365 -187.708 222.507 L -202.128 233.837 C -202.128 233.837 -205.438 222.337 -215.738 209.497 Z" fill="#ffad95" style="transform-origin: -144.177px 255.399px;" transform="matrix(-1, 0, 0, -1, 0.000037, 0.000011)"/><path d="M -137.227 440.153 C -132.302 441.244 -127.496 442.815 -122.877 444.843 L -103.187 394.843 C -103.187 394.843 -87.707 355.173 -84.777 337.583 C -84.777 337.583 -117.307 326.163 -121.117 343.453 C -121.117 343.453 -123.117 346.383 -125.507 376.853 C -125.507 376.853 -128.147 395.023 -132.247 407.623 C -132.237 407.643 -136.637 419.643 -137.227 440.153 Z" fill="#00aeef" style="transform-origin: -111.002px 389.362px;" transform="matrix(-1, 0, 0, -1, -0.000071, 0.000021)"/><path d="M -137.227 440.153 C -132.302 441.244 -127.496 442.815 -122.877 444.843 L -103.187 394.843 C -103.187 394.843 -87.707 355.173 -84.777 337.583 C -84.777 337.583 -117.307 326.163 -121.117 343.453 C -121.117 343.453 -123.117 346.383 -125.507 376.853 C -125.507 376.853 -128.147 395.023 -132.247 407.623 C -132.237 407.643 -136.637 419.643 -137.227 440.153 Z" fill="#fff" opacity="0.2" style="transform-origin: -111.002px 389.362px;" transform="matrix(-1, 0, 0, -1, -0.000071, 0.000021)"/><path d="M -135.267 297.902 L -142.377 307.522 L -139.937 312.212 C -136.158 308.724 -132.859 304.749 -130.127 300.392 L -135.267 297.902 Z" fill="#f3e4cd" style="transform-origin: -136.252px 305.057px;" transform="matrix(-1, 0, 0, -1, 0.000056, 0.000006)"/><path d="M -206.29 295.317 L -196.92 300.617 C -196.92 300.617 -196.31 290.027 -182.46 271.697 C -182.46 271.697 -168.41 251.947 -169.23 242.377 L -186 234.067 C -186.938 233.608 -188.066 234.078 -188.4 235.067 C -191.03 242.427 -200.85 270.597 -206.29 295.317 Z" fill="#bfbfbf" style="transform-origin: -187.743px 267.255px;" transform="matrix(-1, 0, 0, -1, 0.000027, -0.00004)"/><path d="M -206.29 295.317 L -196.92 300.617 C -196.92 300.617 -196.31 290.027 -182.46 271.697 C -182.46 271.697 -168.41 251.947 -169.23 242.377 L -186 234.067 C -186.938 233.608 -188.066 234.078 -188.4 235.067 C -191.03 242.427 -200.85 270.597 -206.29 295.317 Z" fill="#fff" opacity="0.2" style="transform-origin: -187.743px 267.255px;" transform="matrix(-1, 0, 0, -1, 0.000027, -0.00004)"/><path d="M -237.217 281.752 L -206.877 292.132 C -194.854 276.217 -185.309 258.574 -178.567 239.802 C -178.567 239.802 -197.097 226.562 -209.567 223.512 C -209.567 223.512 -209.567 235.022 -224.417 255.022 C -224.377 255.022 -236.197 270.962 -237.217 281.752 Z" fill="#bfbfbf" style="transform-origin: -207.892px 257.822px;" transform="matrix(-1, 0, 0, -1, -0.000043, 0.000026)"/><path d="M -178.029 203.584 C -178.029 203.584 -182.869 222.484 -175.909 235.914 C -174.893 236.293 -173.789 236.373 -172.729 236.144 C -172.729 236.144 -174.849 218.144 -173.829 205.964 L -178.029 203.584 Z" fill="#a98c5d" style="transform-origin: -176.198px 219.928px;" transform="matrix(-1, 0, 0, -1, -0.000029, 0)"/><path d="M -103.127 332.492 L -109.947 329.322 L -134.437 393.912 L -130.257 396.252 C -130.257 396.252 -127.567 384.802 -118.777 365.012 L -103.127 332.492 Z" fill="#757575" style="transform-origin: -118.782px 362.787px;" transform="matrix(-1, 0, 0, -1, 0.000031, 0.000026)"/><path d="M -103.127 332.492 L -109.947 329.322 L -134.437 393.912 L -130.257 396.252 C -130.257 396.252 -127.567 384.802 -118.777 365.012 L -103.127 332.492 Z" fill="#fff" opacity="0.2" style="transform-origin: -118.782px 362.787px;" transform="matrix(-1, 0, 0, -1, 0.000031, 0.000026)"/><path d="M 161.843 201.702 L 148.323 201.702 C 148.323 201.702 103.423 229.952 80.423 249.882 C 80.423 249.882 75.823 252.082 72.103 261.932 C 72.103 261.932 66.183 291.282 53.923 282.302 C 53.923 282.302 41.653 279.672 44.503 271.352 C 44.503 271.352 37.053 273.352 36.843 269.822 C 36.843 269.822 37.053 264.822 49.763 263.902 C 49.763 263.902 47.763 258.902 61.763 251.422 C 82.544 227.758 105.175 205.785 129.443 185.712 C 129.443 185.712 134.703 180.242 150.033 180.712 L 162.783 180.712 L 161.843 201.702 Z M 58.363 268.852 C 58.363 268.852 56.173 265.032 52.133 266.762 C 49.981 267.673 48.669 269.876 48.893 272.202 C 48.931 274.194 50.581 275.777 52.573 275.732 C 52.573 275.732 59.673 273.442 58.363 268.852 Z" fill="#ffad95" style="transform-origin: 99.813px 232.347px;" transform="matrix(-1, 0, 0, -1, 0.000008, 0.000003)"/><path d="M 142.396 190.622 C 142.396 190.622 136.736 218.372 150.696 228.392 C 151.352 227.99 151.925 227.468 152.386 226.852 C 152.726 226.392 152.996 225.883 153.186 225.342 C 151.489 222.891 150.18 220.192 149.306 217.342 C 147.766 212.072 147.036 204.232 150.246 193.952 L 142.396 190.622 Z" fill="#f3e4cd" style="transform-origin: 147.224px 209.507px;" transform="matrix(-1, 0, 0, -1, -0.000008, -0.000007)"/><path d="M -99.044 294.752 C -99.044 294.752 -108.354 317.752 -104.294 332.112 L -106.714 332.422 C -106.714 332.422 -115.234 315.422 -108.274 289.562 L -99.044 294.752 Z" fill="#f3e4cd" style="transform-origin: -105.026px 310.992px;" transform="matrix(-1, 0, 0, -1, -0.000039, -0.000013)"/><polygon points="-128.777 304.382 -135.937 314.002 -137.237 311.542 -131.597 302.592 -128.777 304.382" fill="#757575" style="transform-origin: -133.007px 308.297px;" transform="matrix(-1, 0, 0, -1, 0.00006, 0.000015)"/><path d="M -149.887 289.552 C -149.887 289.552 -173.067 334.112 -177.027 353.322 L -171.567 356.252 C -178.01 367.389 -180.719 380.295 -179.297 393.082 L -175.617 393.082 C -175.617 393.082 -178.447 372.832 -168.137 357.912 L -147.087 370.432 L -141.997 372.922 C -141.997 372.922 -139.727 376.192 -135.607 367.782 C -129.987 360.102 -124.177 351.432 -118.467 341.782 C -113.087 332.672 -108.527 323.932 -104.657 315.782 C -108.637 312.732 -112.917 309.712 -149.887 289.552 Z" fill="#757575" style="transform-origin: -142.162px 341.317px;" transform="matrix(-1, 0, 0, -1, 0.00004, 0.000005)"/><path d="M 92.264 136.492 L 212.984 165.792 C 217.674 166.92 222.398 164.067 223.584 159.392 L 253.984 34.292 C 255.112 29.603 252.259 24.878 247.584 23.692 L 126.884 -5.608 C 122.194 -6.736 117.47 -3.883 116.284 0.792 L 85.884 125.892 C 84.731 130.579 87.583 135.316 92.264 136.492 Z" fill="#e0e0e0" style="transform-origin: 169.929px 80.092px;" transform="matrix(-1, 0, 0, -1, -0.000061, -0.000021)"/><path d="M 224.873 76.392 C 224.767 76.38 224.665 76.346 224.573 76.292 L 223.773 76.092 L 220.673 75.292 L 209.073 72.392 L 170.073 62.792 L 169.773 62.692 L 169.673 62.992 L 167.173 69.192 C 159.973 87.492 153.573 103.792 149.373 114.392 L 149.573 114.292 L 139.173 111.892 L 136.373 111.292 L 135.673 111.092 L 135.493 111.092 C 135.57 111.099 135.641 111.135 135.693 111.192 L 136.393 111.392 L 139.093 112.092 L 149.493 114.692 L 149.693 114.692 L 149.793 114.492 L 167.793 69.292 C 168.693 67.192 169.493 65.092 170.293 63.092 L 169.893 63.292 L 208.893 72.692 L 220.493 75.392 L 223.593 76.092 L 224.393 76.292 L 224.873 76.392 Z" fill="#fff" style="transform-origin: 180.183px 88.692px;" transform="matrix(-1, 0, 0, -1, 0.000031, -0.000011)"/><path d="M 150.693 54.992 L 150.993 55.092 L 151.793 55.292 L 154.893 56.092 L 166.593 58.992 L 206.993 68.892 L 206.793 68.592 C 206.293 75.692 205.793 83.392 205.293 91.292 C 205.093 95.392 204.793 99.392 204.493 103.192 L 204.893 102.892 L 157.193 91.392 L 143.093 88.092 L 139.293 87.192 L 138.293 86.992 C 138.193 86.992 138.093 86.892 137.993 86.892 C 138.093 86.892 138.193 86.992 138.293 86.992 L 139.293 87.292 L 143.093 88.292 L 157.193 91.792 L 204.793 103.492 L 205.193 103.592 L 205.193 103.192 C 205.393 99.392 205.693 95.392 205.993 91.292 C 206.493 83.392 206.993 75.692 207.393 68.592 L 207.393 68.292 L 207.193 68.192 L 166.693 58.392 L 154.893 55.592 L 151.793 54.892 L 150.993 54.692 C 150.893 54.992 150.793 54.992 150.693 54.992 Z" fill="#fff" style="transform-origin: 172.693px 79.142px;" transform="matrix(-1, 0, 0, -1, -0.000011, 0.000004)"/><path d="M 184.313 128.366 C 184.213 128.366 184.113 128.866 183.713 129.566 C 183.096 130.637 182.149 131.479 181.013 131.966 C 177.226 133.681 173.003 130.654 173.411 126.517 C 173.819 122.381 178.552 120.237 181.931 122.658 C 182.294 122.919 182.624 123.224 182.913 123.566 C 183.732 124.512 184.192 125.715 184.213 126.966 C 184.313 127.866 184.213 128.366 184.313 128.366 C 184.413 128.366 184.313 128.266 184.413 127.966 C 184.496 127.64 184.529 127.303 184.513 126.966 C 184.565 123.498 181.559 120.774 178.113 121.166 C 174.874 121.533 172.521 124.419 172.813 127.666 C 173.019 129.46 174.007 131.07 175.513 132.066 C 177.175 133.189 179.309 133.341 181.113 132.466 C 182.329 131.951 183.297 130.982 183.813 129.766 C 183.989 129.451 184.123 129.115 184.213 128.766 C 184.264 128.638 184.297 128.503 184.313 128.366 Z" fill="#fff" style="transform-origin: 178.653px 127.079px;" transform="matrix(-1, 0, 0, -1, 0.000045, 0.000005)"/><path d="M 149.113 119.889 C 149.013 119.889 148.913 120.389 148.513 121.089 C 147.896 122.16 146.949 123.002 145.813 123.489 C 143.107 124.674 139.955 123.413 138.813 120.689 C 137.203 116.915 140.283 112.814 144.356 113.307 C 145.706 113.47 146.943 114.144 147.813 115.189 C 148.607 116.15 149.064 117.344 149.113 118.589 C 149.113 119.389 149.013 119.889 149.113 119.889 C 149.213 119.889 149.213 119.789 149.213 119.589 C 149.296 119.263 149.329 118.926 149.313 118.589 C 149.311 115.09 146.296 112.353 142.813 112.689 C 139.574 113.056 137.221 115.942 137.513 119.189 C 137.719 120.983 138.707 122.593 140.213 123.589 C 143.141 125.467 147.051 124.397 148.613 121.289 C 148.803 120.99 148.907 120.644 148.913 120.289 C 149.027 120.185 149.098 120.043 149.113 119.889 Z" fill="#fff" style="transform-origin: 143.403px 118.591px;" transform="matrix(-1, 0, 0, -1, -0.000049, -0.000014)"/><path d="M 160.39 53.92 C 163.319 41.909 152.147 31.232 140.281 34.701 C 128.414 38.17 124.753 53.184 133.691 61.726 C 135.731 63.675 138.248 65.053 140.99 65.72 C 149.603 67.805 158.28 62.527 160.39 53.92 Z" fill="#fff" style="transform-origin: 144.791px 50.106px;" transform="matrix(-1, 0, 0, -1, 0.000057, 0.000019)"/><path d="M 152.393 57.182 C 151.994 56.135 151.492 55.13 150.893 54.182 C 149.893 52.382 148.593 49.882 146.993 47.182 L 145.293 44.282 L 145.193 44.082 L 144.893 44.182 C 142.893 45.282 141.093 46.182 139.893 46.882 C 139.204 47.186 138.563 47.59 137.993 48.082 C 138.727 47.868 139.432 47.566 140.093 47.182 C 141.393 46.582 143.193 45.682 145.193 44.682 L 144.793 44.582 C 145.293 45.482 145.893 46.482 146.393 47.482 C 147.893 50.182 149.393 52.682 150.493 54.382 C 151.068 55.354 151.703 56.289 152.393 57.182 Z" fill="#e0e0e0" style="transform-origin: 145.193px 50.632px;" transform="matrix(-1, 0, 0, -1, 0.000043, 0.000016)"/></svg>