<?xml version="1.0" encoding="utf-8"?>
<svg viewBox="325.699 -50.737 358.428 599.837" width="358.428px" height="599.837px" xmlns="http://www.w3.org/2000/svg" xmlns:bx="https://boxy-svg.com"><defs><bx:export><bx:file format="svg"/></bx:export></defs><g transform="matrix(1, 0, 0, 1, 135.647417, -74.366029)"><g><g><rect x="222.78" y="27.31" width="299.13" height="563.41" fill="#ebebeb"/><path d="M522.41,591.23H222.28V26.81h300.13V591.23Zm-299.13-1h298.13V27.81H223.28V590.23Z" fill="#002346"/></g><g><polygon points="506.67 42.56 506.67 575.48 238.03 575.48 238.03 42.56 307.37 42.56 310.64 59.99 431.16 59.99 436.61 42.56 506.67 42.56" fill="#fff"/><path d="M507.17,575.98H237.53V42.06h70.25l3.27,17.43h119.74l5.45-17.43h70.93V575.98Zm-268.64-1H506.17V43.06h-69.19l-5.45,17.43h-121.3l-3.27-17.43h-68.42V574.98Z" fill="#002346"/></g><g><rect x="353.47" y="44.01" width="37.75" height="5.81" fill="#fff"/><path d="M391.72,50.32h-38.75v-6.81h38.75v6.81Zm-37.75-1h36.75v-4.81h-36.75v4.81Z" fill="#002346"/></g><g><polygon points="506.67 42.56 506.67 102.23 238.03 102.23 238.03 42.56 307.37 42.56 310.64 59.99 431.16 59.99 436.61 42.56 506.67 42.56" fill="#fbe493"/><path d="M507.17,102.73H237.53V42.06h70.25l3.27,17.43h119.74l5.45-17.43h70.93v60.67Zm-268.64-1H506.17V43.06h-69.19l-5.45,17.43h-121.3l-3.27-17.43h-68.42v58.67Z" fill="#002346"/></g><g><rect x="238.03" y="534.73" width="268.64" height="40.75" fill="#fbe493"/><path d="M507.17,575.98H237.53v-41.75H507.17v41.75Zm-268.64-1H506.17v-39.75H238.53v39.75Z" fill="#002346"/></g></g><g><g><path d="M486.93,467.1h-229.17c-.28,0-.5-.22-.5-.5s.22-.5,.5-.5h229.17c.28,0,.5,.22,.5,.5s-.22,.5-.5,.5Z" fill="#002346"/><path d="M442.03,478.94h-184.27c-.28,0-.5-.22-.5-.5s.22-.5,.5-.5h184.27c.28,0,.5,.22,.5,.5s-.22,.5-.5,.5Z" fill="#002346"/><path d="M486.93,490.79h-229.17c-.28,0-.5-.22-.5-.5s.22-.5,.5-.5h229.17c.28,0,.5,.22,.5,.5s-.22,.5-.5,.5Z" fill="#002346"/><path d="M486.93,502.64h-229.17c-.28,0-.5-.22-.5-.5s.22-.5,.5-.5h229.17c.28,0,.5,.22,.5,.5s-.22,.5-.5,.5Z" fill="#002346"/><path d="M442.03,514.49h-184.27c-.28,0-.5-.22-.5-.5s.22-.5,.5-.5h184.27c.28,0,.5,.22,.5,.5s-.22,.5-.5,.5Z" fill="#002346"/><g><circle cx="463.07" cy="513.99" r="2.02" fill="#fff"/><path d="M463.07,516.51c-1.39,0-2.52-1.13-2.52-2.52s1.13-2.52,2.52-2.52,2.52,1.13,2.52,2.52-1.13,2.52-2.52,2.52Zm0-4.04c-.84,0-1.52,.68-1.52,1.52s.68,1.52,1.52,1.52,1.52-.68,1.52-1.52-.68-1.52-1.52-1.52Z" fill="#002346"/></g><g><circle cx="452.15" cy="513.99" r="2.02" fill="#fff"/><path d="M452.15,516.51c-1.39,0-2.52-1.13-2.52-2.52s1.13-2.52,2.52-2.52,2.52,1.13,2.52,2.52-1.13,2.52-2.52,2.52Zm0-4.04c-.84,0-1.52,.68-1.52,1.52s.68,1.52,1.52,1.52,1.52-.68,1.52-1.52-.68-1.52-1.52-1.52Z" fill="#002346"/></g><g><circle cx="473.99" cy="513.99" r="2.02" fill="#fff"/><path d="M473.99,516.51c-1.39,0-2.52-1.13-2.52-2.52s1.13-2.52,2.52-2.52,2.52,1.13,2.52,2.52-1.13,2.52-2.52,2.52Zm0-4.04c-.84,0-1.52,.68-1.52,1.52s.68,1.52,1.52,1.52,1.52-.68,1.52-1.52-.68-1.52-1.52-1.52Z" fill="#002346"/></g></g><g><circle cx="484.91" cy="513.99" r="2.02" fill="#ebebeb"/><path d="M484.91,516.51c-1.39,0-2.52-1.13-2.52-2.52s1.13-2.52,2.52-2.52,2.52,1.13,2.52,2.52-1.13,2.52-2.52,2.52Zm0-4.04c-.84,0-1.52,.68-1.52,1.52s.68,1.52,1.52,1.52,1.52-.68,1.52-1.52-.68-1.52-1.52-1.52Z" fill="#002346"/></g></g><g><g><path d="M486.93,390.1h-229.17c-.28,0-.5-.22-.5-.5s.22-.5,.5-.5h229.17c.28,0,.5,.22,.5,.5s-.22,.5-.5,.5Z" fill="#002346"/><path d="M442.03,401.94h-184.27c-.28,0-.5-.22-.5-.5s.22-.5,.5-.5h184.27c.28,0,.5,.22,.5,.5s-.22,.5-.5,.5Z" fill="#002346"/><path d="M486.93,413.79h-229.17c-.28,0-.5-.22-.5-.5s.22-.5,.5-.5h229.17c.28,0,.5,.22,.5,.5s-.22,.5-.5,.5Z" fill="#002346"/><path d="M486.93,425.64h-229.17c-.28,0-.5-.22-.5-.5s.22-.5,.5-.5h229.17c.28,0,.5,.22,.5,.5s-.22,.5-.5,.5Z" fill="#002346"/><path d="M442.03,437.49h-184.27c-.28,0-.5-.22-.5-.5s.22-.5,.5-.5h184.27c.28,0,.5,.22,.5,.5s-.22,.5-.5,.5Z" fill="#002346"/><g><circle cx="463.07" cy="436.99" r="2.02" fill="#fff"/><path d="M463.07,439.51c-1.39,0-2.52-1.13-2.52-2.52s1.13-2.52,2.52-2.52,2.52,1.13,2.52,2.52-1.13,2.52-2.52,2.52Zm0-4.04c-.84,0-1.52,.68-1.52,1.52s.68,1.52,1.52,1.52,1.52-.68,1.52-1.52-.68-1.52-1.52-1.52Z" fill="#002346"/></g><g><circle cx="452.15" cy="436.99" r="2.02" fill="#fff"/><path d="M452.15,439.51c-1.39,0-2.52-1.13-2.52-2.52s1.13-2.52,2.52-2.52,2.52,1.13,2.52,2.52-1.13,2.52-2.52,2.52Zm0-4.04c-.84,0-1.52,.68-1.52,1.52s.68,1.52,1.52,1.52,1.52-.68,1.52-1.52-.68-1.52-1.52-1.52Z" fill="#002346"/></g><g><circle cx="473.99" cy="436.99" r="2.02" fill="#fff"/><path d="M473.99,439.51c-1.39,0-2.52-1.13-2.52-2.52s1.13-2.52,2.52-2.52,2.52,1.13,2.52,2.52-1.13,2.52-2.52,2.52Zm0-4.04c-.84,0-1.52,.68-1.52,1.52s.68,1.52,1.52,1.52,1.52-.68,1.52-1.52-.68-1.52-1.52-1.52Z" fill="#002346"/></g></g><g><circle cx="484.91" cy="436.99" r="2.02" fill="#ebebeb"/><path d="M484.91,439.51c-1.39,0-2.52-1.13-2.52-2.52s1.13-2.52,2.52-2.52,2.52,1.13,2.52,2.52-1.13,2.52-2.52,2.52Zm0-4.04c-.84,0-1.52,.68-1.52,1.52s.68,1.52,1.52,1.52,1.52-.68,1.52-1.52-.68-1.52-1.52-1.52Z" fill="#002346"/></g></g><g><g><path d="M486.93,122.33h-229.17c-.28,0-.5-.22-.5-.5s.22-.5,.5-.5h229.17c.28,0,.5,.22,.5,.5s-.22,.5-.5,.5Z" fill="#002346"/><path d="M442.03,134.17h-184.27c-.28,0-.5-.22-.5-.5s.22-.5,.5-.5h184.27c.28,0,.5,.22,.5,.5s-.22,.5-.5,.5Z" fill="#002346"/><path d="M486.93,146.02h-229.17c-.28,0-.5-.22-.5-.5s.22-.5,.5-.5h229.17c.28,0,.5,.22,.5,.5s-.22,.5-.5,.5Z" fill="#002346"/><path d="M486.93,157.87h-229.17c-.28,0-.5-.22-.5-.5s.22-.5,.5-.5h229.17c.28,0,.5,.22,.5,.5s-.22,.5-.5,.5Z" fill="#002346"/><path d="M442.03,169.72h-184.27c-.28,0-.5-.22-.5-.5s.22-.5,.5-.5h184.27c.28,0,.5,.22,.5,.5s-.22,.5-.5,.5Z" fill="#002346"/><g><circle cx="463.07" cy="169.22" r="2.02" fill="#fff"/><path d="M463.07,171.74c-1.39,0-2.52-1.13-2.52-2.52s1.13-2.52,2.52-2.52,2.52,1.13,2.52,2.52-1.13,2.52-2.52,2.52Zm0-4.04c-.84,0-1.52,.68-1.52,1.52s.68,1.52,1.52,1.52,1.52-.68,1.52-1.52-.68-1.52-1.52-1.52Z" fill="#002346"/></g><g><circle cx="452.15" cy="169.22" r="2.02" fill="#fff"/><path d="M452.15,171.74c-1.39,0-2.52-1.13-2.52-2.52s1.13-2.52,2.52-2.52,2.52,1.13,2.52,2.52-1.13,2.52-2.52,2.52Zm0-4.04c-.84,0-1.52,.68-1.52,1.52s.68,1.52,1.52,1.52,1.52-.68,1.52-1.52-.68-1.52-1.52-1.52Z" fill="#002346"/></g><g><circle cx="473.99" cy="169.22" r="2.02" fill="#fff"/><path d="M473.99,171.74c-1.39,0-2.52-1.13-2.52-2.52s1.13-2.52,2.52-2.52,2.52,1.13,2.52,2.52-1.13,2.52-2.52,2.52Zm0-4.04c-.84,0-1.52,.68-1.52,1.52s.68,1.52,1.52,1.52,1.52-.68,1.52-1.52-.68-1.52-1.52-1.52Z" fill="#002346"/></g></g><g><circle cx="484.91" cy="169.22" r="2.02" fill="#ebebeb"/><path d="M484.91,171.74c-1.39,0-2.52-1.13-2.52-2.52s1.13-2.52,2.52-2.52,2.52,1.13,2.52,2.52-1.13,2.52-2.52,2.52Zm0-4.04c-.84,0-1.52,.68-1.52,1.52s.68,1.52,1.52,1.52,1.52-.68,1.52-1.52-.68-1.52-1.52-1.52Z" fill="#002346"/></g></g><g><g><rect x="346.96" y="549.44" width="8" height="8" fill="#fff"/><path d="M355.46,557.94h-9v-9h9v9Zm-8-1h7v-7h-7v7Z" fill="#002346"/></g><g><circle cx="371.96" cy="553.44" r="4" fill="#fff"/><path d="M371.96,557.94c-2.48,0-4.5-2.02-4.5-4.5s2.02-4.5,4.5-4.5,4.5,2.02,4.5,4.5-2.02,4.5-4.5,4.5Zm0-8c-1.93,0-3.5,1.57-3.5,3.5s1.57,3.5,3.5,3.5,3.5-1.57,3.5-3.5-1.57-3.5-3.5-3.5Z" fill="#002346"/></g><g><polygon points="397.73 557.57 388.19 557.57 392.96 549.31 397.73 557.57" fill="#fff"/><path d="M398.6,558.07h-11.27l5.63-9.76,5.63,9.76Zm-9.54-1h7.8l-3.9-6.76-3.9,6.76Z" fill="#002346"/></g></g></g><g transform="matrix(1, 0, 0, 1, 141.66643, -87.263032)"><path d="M511.81,227.44h-220.48c-13.95,0-25.25,11.3-25.25,25.25v76.46c0,13.95,11.3,25.25,25.25,25.25h162.81l28.32,25.95v-25.95h29.35c13.95,0,25.25-11.3,25.26-25.25v-76.46c0-13.95-11.31-25.25-25.26-25.25Z" fill="#fbe493"/><path d="M482.96,381.48l-29.01-26.59h-162.62c-14.2,0-25.75-11.55-25.75-25.75v-76.46c0-14.2,11.55-25.75,25.75-25.75h220.48c14.2,0,25.75,11.55,25.76,25.75v76.46c0,14.2-11.56,25.75-25.76,25.75h-28.85v26.59Zm-191.63-153.55c-13.65,0-24.75,11.1-24.75,24.75v76.46c0,13.65,11.1,24.75,24.75,24.75h163l27.62,25.31v-25.31h29.85c13.65,0,24.75-11.1,24.76-24.75v-76.46c0-13.65-11.11-24.75-24.76-24.75h-220.48Z" fill="#002346"/></g><g transform="matrix(1, 0, 0, 1, 150.264422, -86.403032)"><path d="M370.93,194.25H210.87c-6.19,0-11.21,5.02-11.21,11.21v33.96c0,6.19,5.02,11.21,11.21,11.21h23.25v19.41l20.25-19.41h116.56c6.19,0,11.21-5.02,11.21-11.21v-33.96c0-6.19-5.02-11.21-11.21-11.21Z" fill="#f69074"/><path d="M233.62,271.21v-20.08h-22.75c-6.46,0-11.71-5.25-11.71-11.71v-33.96c0-6.46,5.25-11.71,11.71-11.71h160.06c6.46,0,11.71,5.25,11.71,11.71v33.96c0,6.46-5.25,11.71-11.71,11.71h-116.36l-20.95,20.08Zm-22.75-76.46c-5.91,0-10.71,4.8-10.71,10.71v33.96c0,5.91,4.8,10.71,10.71,10.71h23.75v18.74l19.55-18.74h116.76c5.91,0,10.71-4.8,10.71-10.71v-33.96c0-5.91-4.8-10.71-10.71-10.71H210.87Z" fill="#002346"/></g><path d="M 479.378 523.866 L 479.048 523.866 L 478.998 522.866 C 479.138 522.846 479.288 522.846 479.438 522.866 L 479.388 523.866 L 479.378 523.866 Z" fill="#3c4150"/><text style="fill: rgb(51, 51, 51); font-family: Arial, sans-serif; font-size: 41px; white-space: pre;" x="70.988" y="113.549" transform="matrix(0.952181, 0, 0, 0.985166, 380.324682, 113.025781)">************</text><text style="white-space: pre; fill: rgb(51, 51, 51); font-family: Arial, sans-serif; font-size: 28px;" x="408.072" y="146.957">******</text><g transform="matrix(0, 0.785727, 0.76993, 0, -50.826566, -39.111149)" style="transform-origin: 649.805px 399.485px;"><path d="M760.17,453.35c0,1.39-.14,2.79-.43,4.15-.33,1.62-.85,3.2-1.56,4.7-4.9,10.39-17.29,14.84-27.68,9.95-.88-.42-1.73-.89-2.55-1.43l-188.4-123.68,8.16-22,23.24,12.68,178.38,97.39c6.67,3.64,10.83,10.64,10.84,18.24Z" fill="#fff"/><path d="M739.35,474.64c-3.1,0-6.18-.68-9.07-2.04-.9-.42-1.78-.92-2.61-1.46l-188.73-123.9,8.5-22.92,23.75,12.96,178.38,97.39c6.83,3.73,11.09,10.89,11.1,18.68h0c0,1.43-.14,2.86-.44,4.26-.33,1.66-.87,3.28-1.6,4.81-2.43,5.14-6.71,9.04-12.06,10.96-2.35,.84-4.79,1.27-7.22,1.27Zm-199.19-127.8l188.07,123.46c.79,.52,1.63,.99,2.49,1.39,4.9,2.31,10.42,2.58,15.52,.74,5.1-1.83,9.19-5.54,11.5-10.45,.69-1.46,1.2-3,1.52-4.58,.28-1.33,.42-2.69,.42-4.05h0c-.01-7.42-4.07-14.25-10.58-17.8l-178.38-97.39-22.73-12.4-7.82,21.08Z" fill="#002346"/></g><g opacity=".47" transform="matrix(0, 0.785727, 0.76993, 0, 70.950402, -81.587892)" style="transform-origin: 424.33px 264.8px;"><circle cx="424.33" cy="264.8" r="120.65" fill="#fff"/></g><g transform="matrix(0, 0.785727, 0.76993, 0, 70.950387, -81.587846)" style="transform-origin: 424.33px 264.8px;"><path d="M424.33,120.12c-79.9,0-144.68,64.78-144.68,144.68s64.78,144.68,144.68,144.68,144.68-64.78,144.68-144.68c0-79.9-64.76-144.67-144.66-144.68h-.02Zm-.18,265.54c-66.63,0-120.65-54.02-120.65-120.65s54.02-120.65,120.65-120.65,120.65,54.02,120.65,120.65h0c0,66.63-54.02,120.65-120.65,120.65Z" fill="#fff"/><path d="M424.33,409.98c-80.05,0-145.18-65.13-145.18-145.18s65.13-145.18,145.18-145.18h.02c80.05,0,145.17,65.13,145.16,145.18,0,80.05-65.13,145.18-145.18,145.18Zm0-289.86v.5c-79.5,0-144.18,64.68-144.18,144.18s64.68,144.18,144.18,144.18,144.18-64.68,144.18-144.18c0-79.5-64.67-144.17-144.16-144.18l-.02-.5Zm-.18,266.04c-66.8,0-121.15-54.35-121.15-121.15s54.35-121.15,121.15-121.15,121.15,54.35,121.15,121.15-54.35,121.15-121.15,121.15Zm0-241.3c-66.25,0-120.15,53.9-120.15,120.15s53.9,120.15,120.15,120.15,120.15-53.9,120.15-120.15-53.9-120.15-120.15-120.15Z" fill="#002346"/></g><g transform="matrix(1, 0, 0, 1, 229.366428, -81.24402)"><g><path d="M160.34,539.88l-7.03,11.39-29.69,24.47s17.92,20.06,48.45,25.7c0,0,12.18-2.91,32.67-3.32,30.12-.6,55.44,11.3,98.92-35.54l-54.04-9.79-3.01-6.6-18-8.66-68.27,2.36Z" fill="#fbe493"/><path d="M172.08,601.94l-.1-.02c-30.34-5.61-48.55-25.66-48.73-25.86l-.35-.39,30.03-24.74,7.12-11.54h.27s68.39-2.37,68.39-2.37l18.27,8.79,2.98,6.52,54.68,9.91-.62,.67c-35.98,38.76-59.17,37.49-83.72,36.16-5.05-.28-10.26-.56-15.55-.46-20.18,.41-32.44,3.28-32.56,3.31l-.1,.02Zm-47.73-26.16c2.66,2.78,20.09,20,47.71,25.14,1.24-.28,13.36-2.92,32.67-3.31,5.32-.11,10.56,.18,15.62,.46,24.17,1.32,47.01,2.56,82.31-35.17l-53.39-9.67-3.04-6.67-17.72-8.53-67.88,2.34-6.99,11.28-29.28,24.13Z" fill="#002346"/></g><g><path d="M235.53,592.22l12.2,2.26,4.04,2.67-4.95,12.02-16.97-2.79s7.58-3.81,5.67-14.16Z" fill="#f2b3c1"/><path d="M247.13,609.72l-18.87-3.1,1.36-.69c.3-.15,7.21-3.79,5.4-13.62l-.13-.71,13.1,2.47,4.39,2.89-5.25,12.77Zm-15.94-3.63l15.31,2.51,4.64-11.27-3.62-2.38-11.4-2.11c1.12,7.63-2.9,11.71-4.94,13.25Z" fill="#002346"/></g><g><path d="M236.89,444.32l-24.31-8.76,2.26-10.9,9.08-17.49,11.61-.81s-.33,3.88,.81,6.78,.55,31.18,.55,31.18Z" fill="#002346"/><path d="M237.37,445.02l-25.38-9.14,2.39-11.45,9.21-17.74,12.47-.87-.05,.58s-.31,3.8,.78,6.55c1.17,2.96,.61,30.22,.58,31.38v.7Zm-24.24-9.79l23.25,8.38c.16-8.31,.35-28.06-.53-30.29-.92-2.33-.93-5.21-.88-6.42l-10.77,.75-8.92,17.18-2.16,10.4Z" fill="#002346"/></g><g><polygon points="174.81 434.83 181.93 439.2 201.35 434.83 195.35 422.79 184.04 399.39 171.21 390.31 164.9 415.96 174.81 434.83" fill="#002346"/><path d="M181.84,439.73l-7.41-4.55-.06-.12-10-19.04,.05-.18,6.49-26.36,13.54,9.58,.06,.12,11.3,23.4,6.29,12.61-20.25,4.56Zm-6.65-5.26l6.83,4.2,18.61-4.19-5.72-11.47-11.25-23.29-12.13-8.58-6.09,24.75,9.76,18.58Z" fill="#002346"/></g><g><path d="M134.02,602.09s-11.65,7.15-5.8,15.92c1.3,1.94,7.82,17.55,22.59,6.19l-16.79-22.11Z" fill="#fff"/><path d="M140.82,628.8c-.72,0-1.44-.07-2.13-.22-5.81-1.2-9.04-7-10.41-9.48-.2-.36-.36-.65-.47-.82-1.55-2.32-2.06-4.75-1.52-7.21,1.21-5.51,7.22-9.25,7.47-9.41l.39-.24,17.37,22.87-.39,.3c-3.64,2.8-7.09,4.21-10.29,4.21Zm-6.92-26.04c-1.32,.91-5.69,4.19-6.64,8.53-.48,2.19-.02,4.35,1.38,6.44,.12,.19,.3,.49,.51,.89,1.31,2.36,4.38,7.88,9.74,8.99,3.38,.7,7.15-.48,11.22-3.5l-16.21-21.34Z" fill="#002346"/></g><g><polygon points="166.01 596.05 173.43 592.22 182.31 604.93 174.16 609.14 166.01 596.05" fill="#f2b3c1"/><path d="M173.98,609.8l-8.68-13.95,8.29-4.28,9.46,13.55-9.07,4.68Zm-7.26-13.56l7.62,12.24,7.24-3.74-8.3-11.89-6.55,3.38Z" fill="#002346"/></g><g><path d="M135.65,601.43s-6.94,.95-1.78,11.73c0,0,3.77,10.54,13.37,11.69,1.22,.15,2.45-.09,3.54-.66l22.33-12.03s6.46-2.95,1.05-5.43c0,0,3.15-.59,0-5.33,0,0-2.45-7.64-4.89-4.89,0,0,.58-5.89-6.33-2.75,0,.02-17.92,5.78-27.28,7.67Z" fill="#f69074"/><path d="M147.95,625.4c-.26,0-.52-.02-.78-.05-9.8-1.17-13.74-11.91-13.78-12.02-2.05-4.29-2.48-7.64-1.26-9.91,1.12-2.07,3.19-2.45,3.43-2.48,8.99-1.81,26.35-7.34,27.17-7.63,2.51-1.14,4.4-1.26,5.64-.38,.96,.68,1.27,1.81,1.36,2.62,.38-.16,.72-.15,.98-.09,2.07,.44,3.63,4.95,3.89,5.74,1.31,1.99,1.73,3.58,1.25,4.72-.16,.37-.39,.64-.63,.84,1.05,.65,1.58,1.39,1.58,2.22,0,2-3.14,3.49-3.5,3.66l-22.31,12.01c-.95,.51-1.99,.77-3.06,.77Zm-12.23-23.47c-.08,.01-1.8,.28-2.71,1.98-1.04,1.95-.59,5.08,1.31,9.04,.06,.15,3.8,10.31,12.97,11.41,1.12,.13,2.25-.08,3.24-.61l22.33-12.02c.79-.36,2.95-1.61,2.95-2.76,0-.76-1.01-1.38-1.87-1.77l-1.43-.65,1.54-.29s.64-.14,.88-.74c.23-.57,.21-1.69-1.21-3.82l-.06-.12c-.59-1.85-1.98-4.88-3.17-5.13-.19-.04-.47-.04-.88,.41l-1.01,1.14,.14-1.52s.17-1.92-.98-2.73c-.91-.65-2.52-.48-4.65,.49l-.02-.05c-.7,.37-2.94,1.06-10.17,3.21-5.15,1.53-12.32,3.56-17.2,4.54h-.03Z" fill="#002346"/></g><g><path d="M235.53,598.31c-.96,4.49-4.32,8.09-8.74,9.34l-93.37-27.57c-19.53-7.64-27.52-16.27-30.41-23.45-1.28-3.09-1.71-6.47-1.25-9.79,.5-3.32,2.11-6.38,4.56-8.67,3.5-3.35,8.12-5.29,12.96-5.43,13.31-.62,28.61,9.87,37.52,17.07,1.14,.92,2.3,1.83,3.48,2.72,6.58,4.99,13.61,9.35,21.01,13.03,21.84,10.81,54.57,25.32,54.57,25.32,.34,2.48,.23,4.99-.32,7.43Z" fill="#fbe493"/><path d="M226.78,608.17l-93.51-27.61c-16.69-6.52-27.01-14.5-30.74-23.74-1.31-3.17-1.75-6.64-1.28-10.04,.51-3.43,2.19-6.61,4.72-8.97,3.59-3.44,8.31-5.42,13.29-5.56,12.99-.61,27.74,9.01,37.84,17.18,1.14,.92,2.29,1.82,3.47,2.71,6.54,4.96,13.58,9.33,20.93,12.98,21.58,10.68,54.22,25.17,54.55,25.31l.25,.11,.04,.28c.35,2.54,.24,5.1-.32,7.61-1,4.69-4.48,8.41-9.09,9.71l-.14,.04Zm-106.36-74.96c-.38,0-.76,0-1.13,.03-4.74,.14-9.22,2.02-12.64,5.29-2.37,2.21-3.94,5.19-4.42,8.39-.44,3.22-.02,6.51,1.22,9.52,3.62,8.98,13.75,16.77,30.13,23.17l93.19,27.51c4.18-1.24,7.34-4.64,8.25-8.92h0c.52-2.3,.63-4.65,.34-6.99-3.12-1.39-33.75-15.03-54.33-25.22-7.41-3.68-14.5-8.08-21.09-13.08-1.18-.89-2.34-1.81-3.49-2.73-9.67-7.82-23.65-16.99-36.05-16.99Z" fill="#002346"/></g><path d="M182.3,605.94l88.38-24.85s45.51-12.41,36.48-36.86c0,0-7.9-34.18-57.55,8.49l-77.56,38.79s.84,11.43,10.24,14.44Z" fill="#2f2e41"/><g><path d="M182.3,605.94l88.38-24.85s45.51-12.41,36.48-36.86c0,0-7.9-34.18-57.55,8.49l-77.56,38.79s.84,11.43,10.24,14.44Z" fill="#fbe493"/><path d="M182.29,606.46l-.14-.04c-9.62-3.07-10.58-14.76-10.59-14.88l-.02-.33,.3-.15,77.5-38.76c20.13-17.29,35.93-24.23,46.95-20.61,9.08,2.98,11.34,12.34,11.36,12.43,1.84,4.96,1.56,9.87-.83,14.52-7.76,15.08-34.86,22.62-36.01,22.93l-88.52,24.89Zm-9.7-14.67c.23,1.85,1.75,10.98,9.72,13.62l88.24-24.81c.28-.08,27.82-7.74,35.39-22.43,2.26-4.39,2.52-9.03,.76-13.78-.04-.15-2.19-8.98-10.73-11.77-7.34-2.4-21.28-.8-46.02,20.46l-.1,.07-77.25,38.63Z" fill="#002346"/></g><g><path d="M286.1,527.34c-.38,2.32-1.01,4.59-1.88,6.78-2.96,7.03-7.53,7.53-9.68,7.34-1-.1-2.01-.12-3.01-.06-20.9,1.36-21.53-21.84-21.53-24.7v-.28c-.4-.36-1.02-.34-1.38,.06-.16,.17-.25,.41-.25,.65v22.97c-1.79,13.69-12.8,13.55-20.27,11.79-.5-.12-.99-.25-1.46-.38-3.92-1.08-8.06-.93-11.88,.42-10.78,3.81-17.01,4.34-17.01,4.34-1.33,0-2.61-.05-3.86-.16-30.59-1.81-37.74-16.39-37.74-16.39-23.65,12.28-31.42,1.84-33.94-5.27-.62-1.7-1.02-3.47-1.19-5.27-2.26-42.5,18.07-67.32,18.07-67.32,24.85-28.21,45-27.82,45-27.82l7.08,5.13,24.2,4.77,7.76-6.45c4.83,1.75,9.32,4.07,13.46,6.75,11.5,7.45,20.38,17.79,26.74,27.09,8.23,12.03,12.24,22.32,12.24,22.32,1.42,3.84,3.16,9.22,4.41,13.16,.84,2.72,1.91,5.35,3.23,7.88,3.89,7.36,2.88,12.66,2.88,12.66Z" fill="#f69074"/><path d="M197.72,556.77c-1.35,0-2.64-.05-3.88-.16-27.88-1.65-36.41-13.69-37.9-16.22-10.43,5.34-18.87,6.8-25.09,4.35-5.32-2.1-7.9-6.67-9.12-10.12-.63-1.74-1.04-3.55-1.22-5.39-2.25-42.23,17.98-67.44,18.18-67.68,24.73-28.07,45.19-28.04,45.4-28.01h.16s7.12,5.16,7.12,5.16l23.86,4.7,7.79-6.49,.27,.1c4.64,1.68,9.2,3.97,13.57,6.8,9.83,6.37,18.87,15.53,26.88,27.23,8.17,11.94,12.26,22.32,12.3,22.42,1.44,3.9,3.2,9.32,4.42,13.19,.83,2.71,1.91,5.33,3.2,7.8,3.89,7.37,2.99,12.67,2.93,12.98-.38,2.35-1.03,4.66-1.91,6.88-3.02,7.17-7.67,7.87-10.18,7.65-.99-.1-1.98-.12-2.94-.06-5.96,.39-10.87-1.17-14.56-4.62-7.13-6.68-7.5-18.31-7.5-20.57h0c-.18-.07-.38-.03-.51,.12-.08,.08-.12,.2-.12,.31v22.97c-.65,5.03-2.56,8.63-5.67,10.78-4.54,3.13-10.78,2.54-15.21,1.5-.51-.12-1.01-.25-1.49-.39-3.83-1.06-7.83-.92-11.58,.41-10.72,3.79-16.88,4.35-17.13,4.37h-.07Zm-41.36-17.73l.23,.46c.07,.14,7.43,14.35,37.32,16.11,1.24,.1,2.53,.16,3.83,.16,.02,0,6.26-.58,16.84-4.32,3.94-1.4,8.15-1.55,12.18-.43,.46,.13,.95,.26,1.44,.38,4.24,1,10.18,1.58,14.41-1.35,2.87-1.98,4.63-5.35,5.24-10.02v-22.9c0-.37,.13-.72,.38-.99,.54-.6,1.48-.64,2.08-.09l.17,.15v.5c0,2.19,.35,13.44,7.18,19.84,3.48,3.26,8.13,4.73,13.82,4.36,1.01-.06,2.05-.04,3.09,.06,2.22,.2,6.39-.46,9.17-7.04,.86-2.14,1.48-4.38,1.85-6.66h0c0-.06,.91-5.25-2.83-12.34-1.32-2.52-2.42-5.2-3.27-7.96-1.22-3.86-2.98-9.27-4.4-13.14-.04-.09-4.09-10.37-12.19-22.21-7.93-11.59-16.88-20.66-26.6-26.96-4.22-2.74-8.62-4.96-13.09-6.61l-7.72,6.42-24.63-4.9-6.94-5.03c-1.89,.05-21.2,1.24-44.47,27.65-.19,.23-20.17,25.16-17.95,66.96,.17,1.73,.56,3.47,1.16,5.13,1.16,3.27,3.58,7.57,8.55,9.53,6.02,2.37,14.33,.85,24.69-4.53l.45-.24Z" fill="#002346"/></g><g><path d="M191.32,426.18v6.52l-7.27,1.39s-.85,16.87,21.14,17.66c2.23,.09,4.47-.09,6.66-.53,5.46-1.14,14.89-4.52,11.3-13.75,0,0-3.98-2.51-8.24-2.26l.44-3.61-3.46-5.41h-20.56Z" fill="#f2b3c1"/><path d="M206.3,452.27c-.38,0-.76,0-1.14-.02-7.63-.28-13.41-2.49-17.16-6.58-4.72-5.15-4.47-11.34-4.45-11.6l.02-.39,7.25-1.39v-6.61h21.34l3.71,5.8-.39,3.21h.04c4.12,0,7.74,2.25,7.9,2.35l.14,.09,.06,.15c1.14,2.93,1.1,5.54-.1,7.76-2.15,3.97-7.47,5.81-11.56,6.66-1.86,.38-3.75,.57-5.65,.57Zm-21.75-17.77c.03,1.41,.42,6.38,4.2,10.5,3.57,3.88,9.1,5.98,16.45,6.24,2.19,.09,4.4-.09,6.55-.53,3.17-.66,8.81-2.34,10.88-6.16,1.04-1.91,1.08-4.19,.11-6.76-.73-.42-4.19-2.3-7.8-2.1l-.6,.04,.49-4.03-3.22-5.03h-19.79v6.43l-7.27,1.39Z" fill="#002346"/></g><g><path d="M258.98,477.76l-2.72,2.82c-6.93,2.89-9.65,2.26-9.65,2.26l-.89-5.02c-6.78-2.79-8.43-5.27-8.43-5.27h0c.05,.83-.59,1.54-1.42,1.59-.11,0-.23,0-.34-.02-5.72-.99-5.72-5.32-5.72-5.32l-3.13-1.63,1.94-8.48h0l.33-1.45c.44-1.92-1.02-3.74-2.98-3.74h-6.78c1.55-3.22,7.59-5.89,7.59-5.89,7.92-4.12,8.92-.17,8.92-.17,3.01-2.89,9.15,1.16,11.87,3.24,.88,.67,1.54,1.58,1.91,2.62l5.35,15.14c.83,6.38,3.64,8.81,4.17,9.22v.12Z" fill="#f2b3c1"/><path d="M247.41,483.39c-.58,0-.87-.06-.91-.07l-.32-.08-.9-5.07c-4.51-1.88-6.74-3.63-7.73-4.59-.07,.14-.17,.26-.27,.38-.36,.4-.85,.63-1.38,.66-.15,.01-.3,0-.45-.03-5.14-.89-5.98-4.42-6.11-5.5l-3.23-1.69,2.35-10.3c.17-.76,0-1.55-.5-2.17-.49-.61-1.22-.96-2-.96h-7.58l.35-.72c1.61-3.34,7.58-6.02,7.84-6.13,3.52-1.83,6.22-2.36,8-1.56,.65,.29,1.05,.71,1.29,1.07,3.45-2.36,9.48,1.69,12,3.62,.96,.73,1.68,1.71,2.07,2.86l5.38,15.23c.8,6.15,3.45,8.48,3.98,8.89l.18,.14,.03,.56-3.04,3.09c-4.86,2.03-7.72,2.36-9.05,2.36Zm-.36-1.01c.87,.05,3.64-.03,8.93-2.23l2.34-2.42c-.98-.91-3.25-3.58-3.99-9.19l-5.34-15.08c-.33-.96-.93-1.78-1.73-2.39-1.91-1.46-8.37-6.01-11.22-3.28l-.62,.6-.21-.83s-.2-.69-1.07-1.07c-1.02-.44-3.09-.53-7.13,1.56-.08,.04-5.02,2.25-6.94,4.95h5.9c1.09,0,2.1,.49,2.78,1.34,.68,.85,.93,1.95,.69,3.01l-2.18,9.55,3.06,1.6v.3c0,.16,.09,3.93,5.31,4.83,.08,.01,.15,.02,.23,.01,.27-.01,.52-.13,.7-.33,.18-.2,.27-.46,.26-.73l-.1-1.83,1.02,1.52s1.71,2.41,8.21,5.09l.25,.11,.87,4.92Z" fill="#002346"/></g><g><path d="M204.74,453.49s-1.58,.29-2.13,2.76l-5.2,20.29s-.07,5.53,5.03,7.57l18.83-6.48,5.2-6.52,2.46-13.64c.35-1.8-.83-3.54-2.63-3.89h-.08l-21.48-.08Z" fill="#fbe493"/><path d="M202.43,484.64l-.17-.07c-5.35-2.14-5.35-7.98-5.34-8.04l.02-.12,5.2-20.29c.61-2.74,2.45-3.11,2.52-3.12h.09s21.66,.08,21.66,.08c2.06,.4,3.42,2.41,3.02,4.48l-2.48,13.76-5.37,6.73-19.14,6.58Zm-4.52-8.04c0,.59,.21,5.12,4.55,6.97l18.51-6.37,5.03-6.31,2.44-13.52c.29-1.53-.71-3.01-2.23-3.31l-21.41-.07c-.22,.06-1.28,.47-1.7,2.37l-5.18,20.24Z" fill="#002346"/></g><g><path d="M203.52,503.32h10.73c1.15,0,2.19-.66,2.7-1.69l5.03-10.47-4.58,4.04-13.88,8.13Z" fill="#fbe493"/><path d="M214.25,503.82h-12.58l15.47-9.06,6.35-5.61-6.1,12.7c-.58,1.2-1.82,1.97-3.15,1.98Zm-8.89-1h8.89c.95,0,1.83-.56,2.25-1.41l3.96-8.25-2.73,2.41-12.37,7.26Z" fill="#002346"/></g><g><circle cx="208.29" cy="458.57" r="1.59" fill="#fff"/><path d="M208.29,460.66c-1.15,0-2.09-.94-2.09-2.09s.94-2.09,2.09-2.09,2.09,.94,2.09,2.09-.94,2.09-2.09,2.09Zm0-3.18c-.6,0-1.09,.49-1.09,1.09s.49,1.09,1.09,1.09,1.09-.49,1.09-1.09-.49-1.09-1.09-1.09Z" fill="#002346"/></g><g><circle cx="206.63" cy="463.11" r="1.59" fill="#fff"/><path d="M206.63,465.2c-1.15,0-2.09-.94-2.09-2.09s.94-2.09,2.09-2.09,2.09,.94,2.09,2.09-.94,2.09-2.09,2.09Zm0-3.18c-.6,0-1.09,.49-1.09,1.09s.49,1.09,1.09,1.09,1.09-.49,1.09-1.09-.49-1.09-1.09-1.09Z" fill="#002346"/></g><g><ellipse cx="213.6" cy="472.79" rx="3.1" ry="2.33" transform="translate(-301.26 536.67) rotate(-72.76)" fill="#fff"/><path d="M213.22,476.34c-.23,0-.46-.03-.68-.1-.75-.23-1.32-.82-1.62-1.67-.28-.79-.29-1.72,0-2.61h0c.59-1.9,2.27-3.06,3.77-2.6,1.49,.46,2.22,2.38,1.63,4.28-.28,.89-.8,1.66-1.49,2.15-.51,.37-1.06,.56-1.6,.56Zm-1.36-4.09h0c-.21,.69-.22,1.39,0,1.98,.19,.54,.54,.91,.98,1.05,.44,.14,.94,.03,1.4-.31,.51-.37,.9-.95,1.12-1.64,.42-1.35-.03-2.73-.97-3.03-.95-.3-2.1,.6-2.52,1.94Z" fill="#002346"/></g><g><path d="M284.22,610.08s-1.4,6.84-10.13,10.62c-1.72,.73-3.65,.8-5.41,.2-8.28-2.75-33.41-11.35-25.23-12.3l1.83,.3s-5.35-3.01-3.45-6.71l2.74-5.45s.47-1.51,3.77-1.04c0,0-2.73-3.19,1.12-3.48l32.16,3.77h.35c1.26,.38,5.46,2.21,2.25,14.1Z" fill="#f69074"/><path d="M271.13,621.81c-.88,0-1.77-.15-2.62-.44-27.48-9.12-27.26-11.35-27.18-12.08,.09-.92,1.4-1.11,1.98-1.18-1.67-1.47-3.17-3.73-1.93-6.15l2.74-5.45c.03-.11,.51-1.49,3.21-1.4-.33-.61-.61-1.42-.31-2.14,.31-.74,1.11-1.16,2.4-1.25l32.26,3.77h.37s.07,.02,.07,.02c2.27,.68,5.61,3.49,2.59,14.7-.1,.47-1.68,7.17-10.42,10.96-1.01,.43-2.08,.65-3.16,.65Zm-27.7-12.71c-.96,.12-1.11,.32-1.12,.33,.16,1.12,8.41,4.99,26.52,11,1.66,.57,3.45,.51,5.06-.18,8.36-3.62,9.82-10.19,9.83-10.26v-.03c2.88-10.64-.27-12.97-1.84-13.47h-.28l-32.22-3.77c-.51,.05-1.27,.19-1.45,.64-.25,.61,.49,1.69,.77,2.02l.86,1-1.31-.18c-2.76-.39-3.22,.7-3.22,.71l-2.77,5.51c-1.66,3.24,3.2,6.02,3.25,6.05l2.47,1.39-4.55-.75Z" fill="#002346"/></g><g><path d="M286.21,620.9c-7.4,6.11-17.54,0-17.54,0,1.77,.61,3.7,.54,5.41-.2,8.73-3.77,10.13-10.62,10.13-10.62,3.21-11.9-.99-13.77-2.26-14.06,6.69,1.02,9.24,8.22,9.24,8.22,2.98,8.47-4.98,16.65-4.98,16.65Z" fill="#fff"/><path d="M278.41,624.09c-5.31,0-9.92-2.73-9.99-2.77l-4.04-2.44,4.46,1.54c1.65,.57,3.45,.5,5.05-.18,8.36-3.61,9.82-10.19,9.83-10.26,1.87-6.95,1.15-10.26,.21-11.82-.7-1.17-1.61-1.54-2.09-1.65l.19-.98c6.9,1.05,9.53,8.24,9.64,8.55,3.05,8.67-4.76,16.82-5.1,17.17l-.04,.04c-2.55,2.11-5.43,2.81-8.12,2.81Zm-6.64-2.31c3.45,1.31,9.39,2.62,14.1-1.25,.41-.43,7.63-8.23,4.85-16.12-.02-.06-1.8-4.91-6.09-7.03,.06,.08,.11,.17,.17,.26,1.5,2.51,1.47,6.74-.1,12.57-.05,.26-1.55,7.12-10.41,10.95-.81,.35-1.66,.55-2.52,.62Z" fill="#002346"/></g><ellipse cx="232.67" cy="403.17" rx="6.98" ry="3.8" transform="translate(-196.3 583.93) rotate(-82.86)" fill="#f7a48b"/><path d="M231.01,400.57c.25-.36,.63-.6,1.06-.66,.45-.07,.92,.02,1.31,.25,.37,.23,.67,.55,.88,.93,.2,.36,.31,.77,.32,1.18-.3-.24-.58-.49-.85-.75-.23-.22-.48-.42-.75-.59-.59-.35-1.29-.47-1.97-.35Z" fill="#f4937d"/><path d="M232.66,407.17c-.38-.13-.73-.36-.99-.67-.27-.3-.49-.64-.64-1.01-.32-.75-.32-1.59,0-2.34,.19,.37,.31,.72,.44,1.05s.26,.65,.39,.96c.23,.69,.51,1.25,.8,2.01Z" fill="#f4937d"/><g><path d="M225.42,488.1l-3,2.65c-3.34,2.95-6.96,5.57-10.81,7.82l-20.29,11.85c-4.62-.94-4.86-8.29-4.86-8.29l3.61-2.97c.7-.55,.91-1.52,.51-2.31-3.37-6.39,.57-13.55,.57-13.55l.2-6.27c.09-.92,.51-1.79,1.19-2.42,.29-.34,.61-.66,.95-.96l5.6-4.52-1.65,7.36c.06,1.88,.72,3.7,1.9,5.17,.83,1.04,1.91,1.86,3.13,2.39l18.83-6.48,5.2-6.52c5.34,12.52-1.08,17.03-1.08,17.03Z" fill="#f2b3c1"/><path d="M191.41,510.95l-.19-.04c-4.95-1.01-5.25-8.44-5.26-8.76v-.25s3.8-3.12,3.8-3.12c.52-.41,.67-1.12,.38-1.7-3.26-6.19,.02-12.94,.52-13.91l.19-6.16c.11-1.08,.58-2.05,1.35-2.77,.27-.32,.61-.66,.96-.97l6.73-5.43-1.95,8.7c.07,1.74,.7,3.45,1.79,4.82,.74,.92,1.69,1.67,2.77,2.17l18.5-6.37,5.64-7.06,.33,.77c5.32,12.48-.72,17.25-1.23,17.62l-2.98,2.63c-3.36,2.96-7.02,5.61-10.89,7.87l-20.45,11.95Zm-4.43-8.59c.09,1.21,.69,6.63,4.26,7.53l20.12-11.76c3.81-2.23,7.42-4.84,10.73-7.76l3.04-2.68c.24-.17,5.76-4.28,1.24-15.65l-4.77,5.97-19.15,6.59-.18-.08c-1.29-.56-2.44-1.44-3.32-2.54-1.24-1.55-1.95-3.49-2.01-5.47v-.06s1.35-6.03,1.35-6.03l-4.49,3.62c-.31,.27-.61,.57-.88,.89-.62,.59-.99,1.34-1.07,2.15l-.2,6.36-.06,.1c-.04,.07-3.77,7.01-.57,13.08,.51,1.01,.23,2.24-.64,2.94l-3.41,2.8Z" fill="#002346"/></g><g><path d="M231.98,386.18v20.71c0,14.97-12.14,27.11-27.11,27.11-14.12,0-25.72-10.8-26.99-24.59-.08-.83-.12-1.66-.12-2.52v-20.71c0-14.97,12.14-27.11,27.11-27.11,7.48,0,14.26,3.03,19.17,7.94,4.9,4.91,7.94,11.69,7.94,19.17Z" fill="#f2b3c1"/><path d="M204.87,434.49c-14.36,0-26.18-10.77-27.49-25.05-.08-.82-.12-1.66-.12-2.56v-20.71c0-15.22,12.38-27.61,27.61-27.61,7.37,0,14.3,2.87,19.53,8.08,5.21,5.22,8.08,12.16,8.08,19.53v20.71c0,15.22-12.38,27.61-27.61,27.61Zm0-74.92c-14.67,0-26.61,11.94-26.61,26.61v20.71c0,.87,.04,1.67,.12,2.46,1.26,13.77,12.65,24.14,26.49,24.14,14.67,0,26.61-11.94,26.61-26.61v-20.71c0-7.1-2.77-13.79-7.79-18.82-5.03-5.02-11.71-7.79-18.82-7.79Z" fill="#002346"/></g><g><path d="M207.52,362.71c-2.79,6.2-12.58,25.29-30.5,34.3,0,0-20.41,11.64,1.02,37.97,0,0-7.53,1.34-19.07,8.98,0,0-10.54-32.6,8.77-68.46,0,0,10.61-24.46,30.17-20.2,0,0,6.12,.46,8.7,3.71,.88,1.11,1.48,2.39,.9,3.68Z" fill="#002346"/><path d="M158.7,444.75l-.2-.63c-.11-.33-10.39-33.21,8.81-68.85,.09-.21,10.97-24.76,30.72-20.45,.19,0,6.3,.5,8.99,3.89,1.21,1.51,1.53,2.93,.96,4.2h0c-2.61,5.79-12.54,25.39-30.73,34.54-.04,.03-6.68,3.91-8.19,12.03-1.37,7.38,1.78,15.85,9.37,25.18l.54,.66-.83,.15c-.07,.01-7.58,1.42-18.88,8.91l-.55,.36Zm34.78-89.42c-16.24,0-25.18,20.16-25.28,20.38-17.54,32.56-10.25,62.75-8.94,67.47,9.18-5.99,15.68-7.96,17.88-8.51-7.42-9.33-10.48-17.87-9.07-25.38,1.6-8.57,8.41-12.55,8.7-12.71,17.92-9.01,27.71-28.36,30.29-34.07,.41-.91,.14-1.95-.83-3.17-2.42-3.04-8.29-3.52-8.35-3.53-1.52-.33-2.99-.48-4.4-.48Z" fill="#002346"/></g><g><path d="M263.33,471.32c-6.36-9.3-15.24-19.65-26.74-27.09,.02-.05,.02-.07,.02-.08-.98-.9-6.66-6.68-5.57-17.24,0,0,0-16.72,.19-20.41,0,0,6.08-45.82-23.67-43.8-.04,0,2.31-6.51-12.7-7.76,0,0,7.78-12.8,15.3-7.03,0,0,8.52-9.53,28.08,5.52,0,0,17.55,6.88,21.31,47.82l3.77,70.05Z" fill="#002346"/><path d="M263.93,473.08l-1.01-1.47c-7.93-11.59-16.88-20.66-26.6-26.96l-.32-.21,.05-.14c-1.53-1.51-6.55-7.29-5.5-17.43,0-.12,0-16.73,.19-20.38,.04-.3,3.32-26.14-7.56-37.73-3.86-4.12-9.1-5.97-15.58-5.54l-.26,.02-.31-.4,.07-.28c.14-.57,.24-1.71-.65-2.94-1.12-1.55-4.03-3.52-11.61-4.15l-.8-.07,.42-.69c.19-.31,4.67-7.59,10.28-8.64,1.92-.36,3.73,.05,5.4,1.22,1.76-1.61,10.57-7.94,28.38,5.74,1.38,.58,17.89,8.3,21.56,48.21l3.87,71.85Zm-26.81-29.11c9.33,6.09,17.94,14.71,25.62,25.62l-3.68-68.29c-3.68-40.06-20.82-47.32-21-47.39l-.12-.07c-18.97-14.6-27.32-5.67-27.4-5.58l-.31,.35-.37-.28c-1.54-1.18-3.21-1.61-4.96-1.29-4.22,.79-7.91,5.67-9.16,7.49,5.92,.59,9.78,2.1,11.5,4.49,.69,.96,1.01,2.08,.91,3.15,6.51-.29,11.8,1.68,15.75,5.89,11.2,11.94,7.96,37.43,7.82,38.51-.19,3.59-.18,20.17-.18,20.34-1.09,10.54,4.74,16.25,5.41,16.87l.16,.19Z" fill="#002346"/></g><g><path d="M177.89,409.4c-2.45,.02-4.94-1.99-5.97-5.03-1.22-3.6,.08-7.3,2.9-8.25,.96-.32,1.99-.29,2.95,.05v10.72c0,.85,.04,1.69,.12,2.52Z" fill="#f2b3c1"/><path d="M177.84,409.9c-2.7,0-5.33-2.2-6.4-5.37-1.31-3.86,.13-7.84,3.21-8.89,1.05-.35,2.18-.33,3.28,.05l.33,.12v11.07c0,.87,.04,1.67,.12,2.46l.05,.54h-.55s-.03,0-.05,0Zm-1.65-13.51c-.42,0-.83,.07-1.22,.2-2.55,.87-3.71,4.29-2.58,7.62,.87,2.56,2.85,4.4,4.95,4.66-.05-.64-.07-1.29-.07-1.98v-10.35c-.36-.1-.72-.14-1.08-.14Z" fill="#002346"/></g><g><path d="M158.19,538.29l36.85-24.34c1.52-1.01,1.65-3.2,.25-4.37l-9.76-8.19c-.9-.75-2.18-.85-3.18-.24l-3.96,2.42c-2.38-3.08-5.9,.07-5.9,.07l-24.1,12.05s0-25.6,17.32-44.43" fill="#f69074"/><path d="M158.19,538.79c-.16,0-.32-.08-.42-.22-.15-.23-.09-.54,.14-.69l36.85-24.34c.59-.39,.96-1.02,1-1.73,.04-.71-.25-1.38-.79-1.84l-9.76-8.19c-.74-.62-1.78-.7-2.6-.19l-3.96,2.42c-.22,.13-.5,.08-.66-.12-.54-.7-1.17-1.08-1.91-1.15-1.64-.15-3.25,1.27-3.27,1.28-.03,.03-.07,.05-.11,.07l-24.1,12.05c-.16,.08-.34,.07-.49-.02-.15-.09-.24-.25-.24-.43,0-.26,.2-26.01,17.45-44.77,.19-.2,.5-.21,.71-.03,.2,.19,.22,.5,.03,.71-15.26,16.58-16.97,38.75-17.16,43.27l23.29-11.65c.33-.28,2.07-1.66,3.97-1.49,.88,.08,1.66,.48,2.32,1.19l3.59-2.2c1.19-.72,2.7-.61,3.76,.28l9.76,8.19c.79,.66,1.21,1.63,1.15,2.66-.06,1.03-.59,1.94-1.45,2.51l-36.85,24.34c-.08,.06-.18,.08-.28,.08Z" fill="#002346"/></g><path d="M215.32,486.62c-.18,0-.35-.09-.44-.26-.13-.24-.05-.55,.2-.68l8.41-4.64,2.83-5.81c.12-.25,.42-.35,.67-.23,.25,.12,.35,.42,.23,.67l-2.9,5.95c-.04,.09-.12,.17-.21,.22l-8.55,4.72c-.08,.04-.16,.06-.24,.06Z" fill="#002346"/><path d="M217.51,490.5c-.17,0-.33-.08-.42-.23-.15-.23-.08-.54,.16-.69l7.24-4.58,2.93-4.59c.15-.23,.46-.3,.69-.15,.23,.15,.3,.46,.15,.69l-2.99,4.68c-.04,.06-.09,.11-.15,.15l-7.33,4.64c-.08,.05-.18,.08-.27,.08Z" fill="#002346"/><path d="M249.3,512.43c-.26,0-.47-.2-.5-.46l-2.26-26.36c-.02-.28,.18-.52,.46-.54,.27-.02,.52,.18,.54,.46l2.26,26.36c.02,.28-.18,.52-.46,.54-.01,0-.03,0-.04,0Z" fill="#002346"/><path d="M228.59,453.32c-.15,0-.3-.07-.4-.2-.17-.22-.12-.53,.1-.7l7.09-5.39c.22-.17,.53-.12,.7,.1,.17,.22,.12,.53-.1,.7l-7.09,5.39c-.09,.07-.2,.1-.3,.1Z" fill="#002346"/><path d="M230.1,467.63s-.05,0-.08,0c-.27-.04-.46-.3-.42-.57l1.1-7.16c.28-1.8,1.3-3.43,2.8-4.47l7.61-5.26c.22-.16,.54-.1,.7,.13,.16,.23,.1,.54-.13,.7l-7.6,5.26c-1.28,.88-2.14,2.27-2.38,3.8l-1.1,7.16c-.04,.25-.25,.42-.49,.42Z" fill="#002346"/><path d="M237.54,470.2c-.18,0-.36-.1-.45-.28-.04-.07-3.44-7.15,1.39-10.36l7.52-5.26c.23-.16,.54-.1,.7,.12,.16,.23,.1,.54-.12,.7l-7.53,5.27c-4.11,2.74-1.08,9.03-1.05,9.1,.12,.25,.02,.55-.23,.67-.07,.04-.15,.05-.22,.05Z" fill="#002346"/></g></svg>