<?xml version="1.0" encoding="utf-8"?>
<svg viewBox="0 0 108 32" width="108px" height="32px" xmlns="http://www.w3.org/2000/svg"><g id="object-0"><path d="M11.6636 32C9.44585 32 7.44716 31.4868 5.66751 30.4603C3.91524 29.4062 2.53258 27.9913 1.51955 26.2159C0.506517 24.4127 0 22.3875 0 20.1404C0 17.8934 0.506517 15.8821 1.51955 14.1066C2.53258 12.3312 3.91524 10.9302 5.66751 9.90377C7.44716 8.87733 9.44585 8.36411 11.6636 8.36411C13.2516 8.36411 14.73 8.6554 16.099 9.23797C17.468 9.7928 18.6453 10.5696 19.6309 11.5683C20.644 12.5392 21.3695 13.7044 21.8076 15.0637L17.0847 17.1443C16.674 16.0069 15.9758 15.0915 14.9902 14.3979C14.0319 13.7044 12.923 13.3576 11.6636 13.3576C10.4863 13.3576 9.43216 13.6489 8.50126 14.2315C7.59775 14.814 6.88589 15.6186 6.36568 16.645C5.84547 17.6714 5.58537 18.8505 5.58537 20.1821C5.58537 21.5137 5.84547 22.6927 6.36568 23.7191C6.88589 24.7456 7.59775 25.5501 8.50126 26.1326C9.43216 26.7152 10.4863 27.0065 11.6636 27.0065C12.9504 27.0065 14.0729 26.6597 15.0312 25.9662C15.9895 25.2726 16.674 24.3433 17.0847 23.1782L21.8076 25.342C21.3695 26.6181 20.6577 27.7694 19.672 28.7958C18.6864 29.7945 17.509 30.5852 16.1401 31.1677C14.7711 31.7226 13.2789 32 11.6636 32Z" style="fill: rgb(243, 198, 35);"/><path d="M25.8898 31.5007V8.86346H31.2698V31.5007H25.8898ZM25.8898 6.3251V0.499348H31.2698V6.3251H25.8898Z" style="fill: rgb(243, 198, 35);"/><path d="M36.2372 31.5007V8.86346H41.2887V13.8986L40.878 13.1495C41.3982 11.4573 42.2059 10.2783 43.3011 9.61248C44.4236 8.94668 45.7652 8.61378 47.3258 8.61378H48.64V13.4408H46.7098C45.1765 13.4408 43.9445 13.9263 43.0136 14.8973C42.0827 15.8405 41.6172 17.1721 41.6172 18.8921V31.5007H36.2372Z" style="fill: rgb(243, 198, 35);"/><path d="M 62.442 32 C 60.224 32 58.225 31.487 56.446 30.46 C 54.693 29.406 53.311 27.991 52.298 26.216 C 51.285 24.413 50.778 22.388 50.778 20.14 C 50.778 17.893 51.285 15.882 52.298 14.107 C 53.311 12.331 54.693 10.93 56.446 9.904 C 58.225 8.877 60.224 8.364 62.442 8.364 C 64.03 8.364 65.508 8.655 66.877 9.238 C 68.246 9.793 69.423 10.57 70.409 11.568 C 71.422 12.539 72.148 13.704 72.586 15.064 L 67.863 17.144 C 67.452 16.007 66.754 15.092 65.768 14.398 C 64.81 13.704 63.701 13.358 62.442 13.358 C 61.264 13.358 60.21 13.649 59.279 14.232 C 58.376 14.814 57.664 15.619 57.144 16.645 C 56.624 17.671 56.363 18.851 56.363 20.182 C 56.363 21.514 56.624 22.693 57.144 23.719 C 57.664 24.746 58.376 25.55 59.279 26.133 C 60.21 26.715 61.264 27.007 62.442 27.007 C 63.728 27.007 64.851 26.66 65.809 25.966 C 66.768 25.273 67.452 24.343 67.863 23.178 L 72.586 25.342 C 72.148 26.618 71.436 27.769 70.45 28.796 C 69.464 29.795 68.287 30.585 66.918 31.168 C 65.549 31.723 64.057 32 62.442 32 Z" style="fill: rgb(243, 198, 35);"/><path d="M76.5842 31.5007V0H81.9642V31.5007H76.5842Z" style="fill: rgb(243, 198, 35);"/><path d="M97.5274 32C95.2276 32 93.2152 31.4729 91.4903 30.4187C89.7654 29.3645 88.4238 27.9358 87.4655 26.1326C86.5073 24.3294 86.0281 22.332 86.0281 20.1404C86.0281 17.8656 86.5073 15.8544 87.4655 14.1066C88.4512 12.3312 89.7791 10.9302 91.4492 9.90377C93.1467 8.87733 95.0359 8.36411 97.1167 8.36411C98.869 8.36411 100.402 8.6554 101.716 9.23797C103.058 9.82055 104.194 10.6251 105.125 11.6515C106.056 12.6779 106.768 13.857 107.261 15.1886C107.754 16.4924 108 17.9072 108 19.433C108 19.8214 107.973 20.2237 107.918 20.6398C107.89 21.0559 107.822 21.4166 107.713 21.7217H90.4636V17.5605H104.673L102.127 19.5163C102.374 18.2401 102.305 17.1027 101.922 16.104C101.566 15.1053 100.964 14.3147 100.115 13.7321C99.2934 13.1495 98.294 12.8583 97.1167 12.8583C95.9942 12.8583 94.9948 13.1495 94.1187 13.7321C93.2426 14.287 92.5718 15.1192 92.1063 16.2289C91.6683 17.3108 91.504 18.6285 91.6135 20.1821C91.504 21.5691 91.682 22.8036 92.1474 23.8856C92.6402 24.9397 93.3521 25.7581 94.283 26.3407C95.2413 26.9233 96.3364 27.2146 97.5685 27.2146C98.8006 27.2146 99.841 26.951 100.69 26.4239C101.566 25.8968 102.25 25.1894 102.743 24.3017L107.096 26.4655C106.658 27.5475 105.974 28.5046 105.043 29.3368C104.112 30.1691 103.003 30.821 101.716 31.2926C100.457 31.7642 99.0607 32 97.5274 32Z" style="fill: rgb(243, 198, 35);"/></g></svg>